<svg width="222" height="252" viewBox="0 0 222 252" fill="none" xmlns="http://www.w3.org/2000/svg">
<path d="M102.851 2.14359C107.802 -0.714532 113.901 -0.714531 118.851 2.14359L213.703 56.906C218.653 59.7641 221.703 65.0461 221.703 70.7624V180.287C221.703 186.003 218.653 191.285 213.702 194.144L118.851 248.906C113.901 251.764 107.802 251.764 102.851 248.906L8 194.144C3.04958 191.285 0 186.003 0 180.287V70.7624C0 65.0461 3.04958 59.7641 8 56.906L102.851 2.14359Z" fill="black" style="fill:black;fill-opacity:1;"/>
<path d="M105.851 8.41154C108.945 6.62522 112.757 6.62522 115.851 8.41154L209.774 62.638C212.868 64.4244 214.774 67.7256 214.774 71.2983V179.751C214.774 183.324 212.868 186.625 209.774 188.412L115.851 242.638C112.757 244.424 108.945 244.424 105.851 242.638L11.9282 188.412C8.83419 186.625 6.9282 183.324 6.9282 179.751V71.2983C6.9282 67.7256 8.83419 64.4244 11.9282 62.638L105.851 8.41154Z" fill="url(#paint0_linear_2_92)" fill-opacity="0.26" style=""/>
<path d="M107.764 23.5248C107.764 18.002 111.643 15.7608 116.427 18.5191L196.243 64.5308C201.028 67.2891 204.907 74.0022 204.907 79.5251V171.526C204.907 177.049 201.028 179.29 196.243 176.531L116.427 130.52C111.643 127.761 107.764 121.048 107.764 115.525V23.5248Z" fill="url(#paint1_linear_2_92)" fill-opacity="0.26" style=""/>
<path d="M197.592 106.063C197.794 107.6 196.164 108.623 194.802 107.883L174.989 97.1168C174.392 96.7923 174.013 96.1843 173.895 95.5152C173.664 94.2118 173.193 92.9135 172.481 91.6205C171.574 89.9705 170.4 88.448 168.96 87.0531C167.551 85.6411 165.986 84.4674 164.264 83.5318C162.041 82.324 160.132 81.7286 158.535 81.7456C156.938 81.7626 156.156 82.5961 156.187 84.2462C156.156 85.386 156.61 86.7043 157.549 88.2013C158.519 89.7153 160.382 91.493 163.137 93.5343L177.788 104.353C185.176 109.831 190.67 115.283 194.27 120.71C197.901 126.119 199.733 131.724 199.764 137.525C199.733 143.088 198.199 147.102 195.162 149.569C192.157 152.018 188.04 152.946 182.812 152.35C177.615 151.738 171.683 149.62 165.015 145.997C153.996 140.009 145.371 132.872 139.141 124.588C133.847 117.527 130.552 110.41 129.254 103.237C128.97 101.67 130.628 100.569 132.028 101.33L153.599 113.051C154.163 113.358 154.536 113.918 154.665 114.547C155.139 116.85 156.21 119.048 157.878 121.143C159.819 123.525 162.26 125.515 165.203 127.114C167.582 128.407 169.539 129.028 171.073 128.977C172.638 128.943 173.436 128.118 173.468 126.502C173.436 124.988 172.748 123.423 171.401 121.807C170.087 120.208 168.02 118.37 165.203 116.295L152.431 106.905C145.074 101.512 139.564 95.8648 135.901 89.962C132.239 84.0591 130.423 78.0372 130.454 71.8962C130.423 66.4356 131.738 62.5401 134.399 60.2095C137.091 57.862 140.926 57.054 145.903 57.7855C150.912 58.4999 156.845 60.7199 163.7 64.4453C174.125 70.11 182.343 76.9229 188.353 84.8841C193.561 91.7607 196.64 98.8204 197.592 106.063Z" fill="white" style="fill:white;fill-opacity:1;"/>
<path d="M58.8512 53.5248C58.8512 48.002 62.8052 45.6251 67.6826 48.216L152.932 93.5003C157.81 96.0911 161.764 102.669 161.764 108.191V197.525C161.764 203.048 157.81 205.424 152.932 202.834L67.6826 157.549C62.8052 154.958 58.8512 148.381 58.8512 142.858V53.5248Z" fill="url(#paint2_linear_2_92)" fill-opacity="0.26" style=""/>
<path d="M80.4341 151.543C79.353 151.06 78.6567 149.987 78.6567 148.803V78.5192C78.6567 76.3462 80.895 74.894 82.8793 75.7796L138.937 100.797C140.018 101.279 140.714 102.352 140.714 103.536V113.778C140.714 115.951 138.476 117.403 136.491 116.517L106.256 103.024C104.272 102.138 102.033 103.591 102.033 105.763V112.402C102.033 113.586 102.73 114.66 103.811 115.142L135.741 129.392C136.822 129.874 137.519 130.948 137.519 132.131V142.373C137.519 144.546 135.28 145.998 133.296 145.113L106.256 133.045C104.272 132.16 102.033 133.612 102.033 135.785V142.424C102.033 143.608 102.73 144.681 103.811 145.163L138.769 160.764C139.85 161.247 140.546 162.32 140.546 163.504V173.745C140.546 175.918 138.308 177.37 136.323 176.485L80.4341 151.543Z" fill="white" style="fill:white;fill-opacity:1;"/>
<path d="M15.8512 79.5248C15.8512 74.0019 19.7286 71.7633 24.5116 74.5246L104.191 120.525C108.974 123.286 112.851 130.002 112.851 135.525V227.525C112.851 233.048 108.974 235.286 104.191 232.525L24.5116 186.525C19.7286 183.763 15.8512 177.048 15.8512 171.525V79.5248Z" fill="url(#paint3_linear_2_92)" fill-opacity="0.26" style=""/>
<path d="M45.7249 184.014C45.1127 185.657 43.4774 186.048 41.643 184.989L25.1707 175.479C22.1279 173.722 20.0341 168.985 21.1325 166.343L46.907 104.338C47.5526 102.785 49.1569 102.442 50.9452 103.474L77.7572 118.953C79.5455 119.986 81.1499 122.181 81.7955 124.48L107.57 216.245C108.668 220.155 106.575 222.475 103.532 220.718L87.0595 211.208C85.2251 210.149 83.5898 207.871 82.9776 205.521L64.811 135.782C64.742 135.517 64.5579 135.26 64.3512 135.141C64.1446 135.022 63.9605 135.066 63.8915 135.251L45.7249 184.014ZM39.8778 154.691C39.8778 151.929 41.8165 150.81 44.2079 152.191L84.1499 175.25C86.5414 176.631 88.48 179.988 88.48 182.75V190.398C88.48 193.16 86.5414 194.279 84.1499 192.898L44.2079 169.839C41.8165 168.458 39.8778 165.101 39.8778 162.339V154.691Z" fill="white" style="fill:white;fill-opacity:1;"/>
<defs>
<linearGradient id="paint0_linear_2_92" x1="216.317" y1="3.81469" x2="4.40583" y2="4.51545" gradientUnits="userSpaceOnUse">
<stop offset="0.173077" stop-color="white" stop-opacity="0.3" style="stop-color:white;stop-opacity:0.3;"/>
<stop offset="1" stop-color="white" stop-opacity="0.1" style="stop-color:white;stop-opacity:0.1;"/>
</linearGradient>
<linearGradient id="paint1_linear_2_92" x1="216.317" y1="3.81469" x2="4.40583" y2="4.51545" gradientUnits="userSpaceOnUse">
<stop offset="0.173077" stop-color="#496BFF" stop-opacity="0.7" style="stop-color:#496BFF;stop-color:color(display-p3 0.2874 0.4180 1.0000);stop-opacity:0.7;"/>
<stop offset="1" stop-color="white" stop-opacity="0.16" style="stop-color:white;stop-opacity:0.16;"/>
</linearGradient>
<linearGradient id="paint2_linear_2_92" x1="216.317" y1="3.81469" x2="4.40583" y2="4.51545" gradientUnits="userSpaceOnUse">
<stop offset="0.173077" stop-color="#496BFF" stop-opacity="0.7" style="stop-color:#496BFF;stop-color:color(display-p3 0.2874 0.4180 1.0000);stop-opacity:0.7;"/>
<stop offset="1" stop-color="white" stop-opacity="0.16" style="stop-color:white;stop-opacity:0.16;"/>
</linearGradient>
<linearGradient id="paint3_linear_2_92" x1="216.317" y1="3.81469" x2="4.40583" y2="4.51545" gradientUnits="userSpaceOnUse">
<stop offset="0.173077" stop-color="#496BFF" stop-opacity="0.7" style="stop-color:#496BFF;stop-color:color(display-p3 0.2874 0.4180 1.0000);stop-opacity:0.7;"/>
<stop offset="1" stop-color="white" stop-opacity="0.16" style="stop-color:white;stop-opacity:0.16;"/>
</linearGradient>
</defs>
</svg>
