<svg width="222" height="252" viewBox="0 0 222 252" fill="none" xmlns="http://www.w3.org/2000/svg">
<g id="Vector">
<path d="M102.851 2.14359C107.802 -0.714532 113.901 -0.714531 118.851 2.14359L213.703 56.906C218.653 59.7641 221.703 65.0461 221.703 70.7624V180.287C221.703 186.003 218.653 191.285 213.702 194.144L118.851 248.906C113.901 251.764 107.802 251.764 102.851 248.906L8 194.144C3.04958 191.285 0 186.003 0 180.287V70.7624C0 65.0461 3.04958 59.7641 8 56.906L102.851 2.14359Z" fill="black" style="fill:black;fill-opacity:1;"/>
<path d="M105.851 8.41154C108.945 6.62522 112.757 6.62522 115.851 8.41154L209.774 62.638C212.868 64.4244 214.774 67.7256 214.774 71.2983V179.751C214.774 183.324 212.868 186.625 209.774 188.412L115.851 242.638C112.757 244.424 108.945 244.424 105.851 242.638L11.9282 188.412C8.83419 186.625 6.9282 183.324 6.9282 179.751V71.2983C6.9282 67.7256 8.83419 64.4244 11.9282 62.638L105.851 8.41154Z" fill="url(#paint0_linear_4_175)" fill-opacity="0.13" style=""/>
<path d="M9.85125 80.5248C9.85125 76.1065 12.9532 74.3156 16.7795 76.5246L99.9229 124.525C103.749 126.734 106.851 132.107 106.851 136.525V232.525C106.851 236.943 103.749 238.734 99.923 236.525L16.7796 188.525C12.9532 186.316 9.85125 180.943 9.85125 176.525V80.5248Z" fill="url(#paint1_linear_4_175)" fill-opacity="0.8" style=""/>
<path d="M113.851 136.527C113.851 132.109 116.953 126.736 120.779 124.527L203.922 76.5248C207.748 74.3156 210.85 76.1065 210.85 80.5248V176.525C210.85 180.943 207.748 186.316 203.922 188.525L120.779 236.527C116.953 238.736 113.851 236.945 113.851 232.527V136.527Z" fill="url(#paint2_linear_4_175)" fill-opacity="0.8" style=""/>
<path d="M20.7795 69.527C16.9531 67.3179 16.9531 63.7361 20.7795 61.527L103.922 13.5248C107.748 11.3156 113.952 11.3156 117.778 13.5248L200.917 61.5248C204.743 63.7339 204.743 67.3156 200.917 69.5247L117.774 117.527C113.948 119.736 107.744 119.736 103.918 117.527L20.7795 69.527Z" fill="url(#paint3_linear_4_175)" fill-opacity="0.8" style=""/>
<path d="M26.8512 172.685L48.1347 116.813L66.6746 127.517L87.958 207.965L71.3303 198.365L68.0048 185.213L46.7213 172.925L43.3958 182.237L26.8512 172.685ZM51.0445 160.829L63.7647 168.173L57.4462 142.925L51.0445 160.829Z" fill="white" style="fill:white;fill-opacity:1;"/>
<path d="M140.851 202.781V134.621L181.922 110.909V123.197L153.488 139.613V155.261L180.924 139.421V151.517L153.488 167.357V183.197L182.587 166.397V178.685L140.851 202.781Z" fill="white" style="fill:white;fill-opacity:1;"/>
<path d="M135.987 78.3578C130.888 81.3018 125.842 83.4443 120.848 84.7854C115.855 86.1264 111.126 86.6925 106.663 86.4837C102.2 86.275 98.1933 85.3055 94.6423 83.5753L106.91 75.9702C109.052 76.8228 111.268 77.3341 113.558 77.5042C115.86 77.6175 118.193 77.3646 120.558 76.7457C122.978 76.0947 125.462 75.0333 128.012 73.5613C130.118 72.3453 131.698 71.2094 132.751 70.1535C133.86 69.0657 134.415 68.0739 134.415 67.1783C134.373 66.2577 133.77 65.4617 132.607 64.7902C131.53 64.1684 130.271 63.8257 128.831 63.762C127.347 63.6735 125.34 63.9867 122.809 64.7016C120.236 65.3917 116.797 66.6062 112.492 68.3451C106.544 70.7349 101.458 72.5024 97.2341 73.6478C93.0657 74.7611 89.4487 75.2328 86.383 75.0629C83.2743 74.868 80.4276 74.0245 77.843 72.5323C75.086 70.9405 73.5328 69.0518 73.1833 66.866C72.8892 64.6482 73.8234 62.2436 75.9858 59.6521C78.1483 57.0605 81.5297 54.4368 86.13 51.7808C91.0075 48.9648 95.8044 46.9663 100.521 45.7853C105.237 44.6043 109.701 44.1413 113.911 44.3963C118.177 44.6193 122.012 45.4893 125.415 47.0062L113.295 54.6007C111.535 53.7765 109.602 53.3006 107.497 53.1731C105.349 53.0207 103.148 53.222 100.894 53.7769C98.6408 54.3319 96.3778 55.2653 94.1053 56.5773C91.2232 58.2413 89.4461 59.8394 88.7741 61.3714C88.1576 62.8714 88.6462 64.0815 90.2401 65.0017C91.3601 65.6484 92.6681 65.9875 94.164 66.0192C95.6723 65.994 97.5655 65.6471 99.8437 64.9784C102.177 64.2777 105.21 63.1486 108.942 61.591C115.29 58.9205 120.712 57.0587 125.207 56.0056C129.714 54.8958 133.537 54.4791 136.676 54.7557C139.816 55.0322 142.549 55.842 144.875 57.185C147.718 58.8265 149.253 60.8006 149.479 63.1072C149.717 65.357 148.679 67.7972 146.362 70.4279C144.101 73.0265 140.643 75.6698 135.987 78.3578Z" fill="white" style="fill:white;fill-opacity:1;"/>
</g>
<defs>
<linearGradient id="paint0_linear_4_175" x1="216.317" y1="3.81469" x2="4.40583" y2="4.51545" gradientUnits="userSpaceOnUse">
<stop offset="0.173077" stop-color="white" stop-opacity="0.3" style="stop-color:white;stop-opacity:0.3;"/>
<stop offset="1" stop-color="white" stop-opacity="0.3" style="stop-color:white;stop-opacity:0.3;"/>
</linearGradient>
<linearGradient id="paint1_linear_4_175" x1="-17.142" y1="264.117" x2="222.37" y2="88.427" gradientUnits="userSpaceOnUse">
<stop stop-color="white" stop-opacity="0.1" style="stop-color:white;stop-opacity:0.1;"/>
<stop offset="1" stop-color="#496BFF" stop-opacity="0.5" style="stop-color:#496BFF;stop-color:color(display-p3 0.2874 0.4180 1.0000);stop-opacity:0.5;"/>
</linearGradient>
<linearGradient id="paint2_linear_4_175" x1="236.562" y1="263.946" x2="-7.75376" y2="243.439" gradientUnits="userSpaceOnUse">
<stop stop-color="white" stop-opacity="0.1" style="stop-color:white;stop-opacity:0.1;"/>
<stop offset="1" stop-color="#496BFF" stop-opacity="0.5" style="stop-color:#496BFF;stop-color:color(display-p3 0.2874 0.4180 1.0000);stop-opacity:0.5;"/>
</linearGradient>
<linearGradient id="paint3_linear_4_175" x1="241.498" y1="-22.4134" x2="-29.8857" y2="217.202" gradientUnits="userSpaceOnUse">
<stop stop-color="white" stop-opacity="0.1" style="stop-color:white;stop-opacity:0.1;"/>
<stop offset="1" stop-color="#496BFF" stop-opacity="0.5" style="stop-color:#496BFF;stop-color:color(display-p3 0.2874 0.4180 1.0000);stop-opacity:0.5;"/>
</linearGradient>
</defs>
</svg>
