<svg width="256" height="256" viewBox="0 0 256 256" fill="none" xmlns="http://www.w3.org/2000/svg">
<path d="M120 4.6188C124.95 1.76068 131.05 1.76068 136 4.6188L230.851 59.3812C235.802 62.2393 238.851 67.5214 238.851 73.2376V182.762C238.851 188.479 235.802 193.761 230.851 196.619L136 251.381C131.05 254.239 124.95 254.239 120 251.381L25.1487 196.619C20.1983 193.761 17.1488 188.479 17.1488 182.762V73.2376C17.1488 67.5214 20.1983 62.2393 25.1488 59.3812L120 4.6188Z" fill="black" style="fill:black;fill-opacity:1;"/>
<path d="M123 10.8868C126.094 9.10042 129.906 9.10042 133 10.8868L226.923 65.1132C230.017 66.8996 231.923 70.2008 231.923 73.7735V182.226C231.923 185.799 230.017 189.1 226.923 190.887L133 245.113C129.906 246.9 126.094 246.9 123 245.113L29.0769 190.887C25.9829 189.1 24.077 185.799 24.077 182.226V73.7735C24.077 70.2008 25.9829 66.8996 29.0769 65.1132L123 10.8868Z" fill="url(#paint0_linear_4_176)" fill-opacity="0.13" style=""/>
<rect width="112.004" height="112" rx="8" transform="matrix(0.866037 0.49998 0 1 27 75)" fill="url(#paint1_linear_4_176)" fill-opacity="0.8" style=""/>
<rect width="112.004" height="112" rx="8" transform="matrix(0.866025 -0.5 0 1 131 131.002)" fill="url(#paint2_linear_4_176)" fill-opacity="0.8" style=""/>
<rect width="112.004" height="112" rx="8" transform="matrix(0.866025 -0.5 0.866025 0.5 31 68.0022)" fill="url(#paint3_linear_4_176)" fill-opacity="0.8" style=""/>
<path d="M44 175.16L65.2834 119.288L83.8233 129.992L105.107 210.44L88.4791 200.84L85.1535 187.688L63.8701 175.4L60.5445 184.712L44 175.16ZM68.1933 163.304L80.9135 170.648L74.5949 145.4L68.1933 163.304Z" fill="white" style="fill:white;fill-opacity:1;"/>
<path d="M158 205.256V137.096L199.07 113.384V125.672L170.637 142.088V157.736L198.073 141.896V153.992L170.637 169.832V185.672L199.735 168.872V181.16L158 205.256Z" fill="white" style="fill:white;fill-opacity:1;"/>
<path d="M153.136 80.833C148.037 83.777 142.99 85.9195 137.997 87.2605C133.003 88.6016 128.275 89.1677 123.812 88.9589C119.349 88.7502 115.342 87.7807 111.791 86.0505L124.059 78.4454C126.201 79.298 128.417 79.8093 130.707 79.9794C133.009 80.0927 135.342 79.8398 137.707 79.2209C140.126 78.5699 142.611 77.5085 145.161 76.0365C147.267 74.8205 148.847 73.6846 149.9 72.6287C151.009 71.5409 151.563 70.5491 151.564 69.6535C151.521 68.7329 150.919 67.9369 149.756 67.2654C148.679 66.6436 147.42 66.3009 145.979 66.2372C144.496 66.1487 142.489 66.4619 139.958 67.1768C137.384 67.8669 133.945 69.0814 129.641 70.8203C123.693 73.2101 118.607 74.9776 114.383 76.123C110.214 77.2363 106.597 77.708 103.532 77.5381C100.423 77.3432 97.5764 76.4997 94.9917 75.0075C92.2348 73.4157 90.6816 71.527 90.332 69.3412C90.038 67.1234 90.9721 64.7188 93.1346 62.1272C95.297 59.5357 98.6784 56.912 103.279 54.256C108.156 51.44 112.953 49.4415 117.669 48.2605C122.386 47.0795 126.849 46.6165 131.06 46.8715C135.326 47.0945 139.161 47.9645 142.564 49.4814L130.444 57.0759C128.684 56.2517 126.751 55.7758 124.646 55.6483C122.497 55.4959 120.297 55.6972 118.043 56.2521C115.79 56.8071 113.527 57.7405 111.254 59.0525C108.372 60.7165 106.595 62.3145 105.923 63.8466C105.306 65.3466 105.795 66.5567 107.389 67.4769C108.509 68.1236 109.817 68.4627 111.313 68.4944C112.821 68.4692 114.714 68.1223 116.992 67.4536C119.326 66.7529 122.359 65.6238 126.09 64.0662C132.439 61.3956 137.861 59.5338 142.355 58.4808C146.862 57.371 150.686 56.9543 153.825 57.2309C156.964 57.5074 159.697 58.3172 162.023 59.6602C164.867 61.3017 166.401 63.2758 166.628 65.5824C166.866 67.8322 165.827 70.2724 163.511 72.9031C161.25 75.5017 157.792 78.145 153.136 80.833Z" fill="white" style="fill:white;fill-opacity:1;"/>
<defs>
<linearGradient id="paint0_linear_4_176" x1="242.17" y1="11.6468" x2="12.7702" y2="12.5058" gradientUnits="userSpaceOnUse">
<stop offset="0.173077" stop-color="white" stop-opacity="0.3" style="stop-color:white;stop-opacity:0.3;"/>
<stop offset="1" stop-color="white" stop-opacity="0.3" style="stop-color:white;stop-opacity:0.3;"/>
</linearGradient>
<linearGradient id="paint1_linear_4_176" x1="-8.66014" y1="117.83" x2="101.464" y2="26.3538" gradientUnits="userSpaceOnUse">
<stop stop-color="white" stop-opacity="0.1" style="stop-color:white;stop-opacity:0.1;"/>
<stop offset="1" stop-color="#496BFF" stop-opacity="0.5" style="stop-color:#496BFF;stop-color:color(display-p3 0.2874 0.4180 1.0000);stop-opacity:0.5;"/>
</linearGradient>
<linearGradient id="paint2_linear_4_176" x1="119.511" y1="117.754" x2="-3.67386" y2="106.044" gradientUnits="userSpaceOnUse">
<stop stop-color="white" stop-opacity="0.1" style="stop-color:white;stop-opacity:0.1;"/>
<stop offset="1" stop-color="#496BFF" stop-opacity="0.5" style="stop-color:#496BFF;stop-color:color(display-p3 0.2874 0.4180 1.0000);stop-opacity:0.5;"/>
</linearGradient>
<linearGradient id="paint3_linear_4_176" x1="122.005" y1="-9.99922" x2="-0.00592156" y2="111.994" gradientUnits="userSpaceOnUse">
<stop stop-color="white" stop-opacity="0.1" style="stop-color:white;stop-opacity:0.1;"/>
<stop offset="1" stop-color="#496BFF" stop-opacity="0.5" style="stop-color:#496BFF;stop-color:color(display-p3 0.2874 0.4180 1.0000);stop-opacity:0.5;"/>
</linearGradient>
</defs>
</svg>
