<svg width="256" height="256" viewBox="0 0 256 256" fill="none" xmlns="http://www.w3.org/2000/svg">
<path d="M120 4.6188C124.95 1.76068 131.05 1.76068 136 4.6188L230.851 59.3812C235.802 62.2393 238.851 67.5214 238.851 73.2376V182.762C238.851 188.479 235.802 193.761 230.851 196.619L136 251.381C131.05 254.239 124.95 254.239 120 251.381L25.1487 196.619C20.1983 193.761 17.1488 188.479 17.1488 182.762V73.2376C17.1488 67.5214 20.1983 62.2393 25.1488 59.3812L120 4.6188Z" fill="black" style="fill:black;fill-opacity:1;"/>
<path d="M123 10.8868C126.094 9.10042 129.906 9.10042 133 10.8868L226.923 65.1132C230.017 66.8996 231.923 70.2008 231.923 73.7735V182.226C231.923 185.799 230.017 189.1 226.923 190.887L133 245.113C129.906 246.9 126.094 246.9 123 245.113L29.0769 190.887C25.9829 189.1 24.077 185.799 24.077 182.226V73.7735C24.077 70.2008 25.9829 66.8996 29.0769 65.1132L123 10.8868Z" fill="url(#paint0_linear_6_192)" fill-opacity="0.13" style=""/>
<path d="M36 102C36 96.4772 39.8774 94.2385 44.6604 96.9998L105.283 131.998C110.066 134.76 113.943 141.475 113.943 146.998V216.995C113.943 222.517 110.066 224.756 105.283 221.995L44.6604 186.996C39.8774 184.235 36 177.519 36 171.996V102Z" fill="url(#paint1_linear_6_192)" fill-opacity="0.8" style=""/>
<rect width="90" height="89.9964" rx="8" transform="matrix(0.866025 -0.5 0 1 140 137)" fill="url(#paint2_linear_6_192)" fill-opacity="0.8" style=""/>
<rect width="90" height="89.9964" rx="8" transform="matrix(0.866025 -0.5 0.866025 0.5 50 67)" fill="url(#paint3_linear_6_192)" fill-opacity="0.8" style=""/>
<path d="M44 175.16L65.2834 119.288L83.8233 129.992L105.107 210.44L88.4791 200.84L85.1535 187.688L63.8701 175.4L60.5445 184.712L44 175.16ZM68.1933 163.304L80.9135 170.648L74.5949 145.4L68.1933 163.304Z" fill="white" style="fill:white;fill-opacity:1;"/>
<path d="M158 205.256V137.096L199.07 113.384V125.672L170.637 142.088V157.736L198.073 141.896V153.992L170.637 169.832V185.672L199.735 168.872V181.16L158 205.256Z" fill="white" style="fill:white;fill-opacity:1;"/>
<path d="M153.136 75.8331C148.037 78.7771 142.99 80.9196 137.997 82.2606C133.003 83.6016 128.275 84.1677 123.812 83.959C119.349 83.7502 115.342 82.7808 111.791 81.0506L124.059 73.4455C126.201 74.298 128.417 74.8094 130.707 74.9795C133.009 75.0927 135.342 74.8399 137.707 74.2209C140.126 73.57 142.611 72.5085 145.161 71.0365C147.267 69.8205 148.847 68.6846 149.9 67.6288C151.009 66.5409 151.563 65.5492 151.564 64.6535C151.521 63.733 150.919 62.937 149.756 62.2654C148.679 61.6437 147.42 61.301 145.979 61.2373C144.496 61.1487 142.489 61.4619 139.958 62.1769C137.384 62.867 133.945 64.0815 129.641 65.8204C123.693 68.2101 118.607 69.9777 114.383 71.123C110.214 72.2364 106.597 72.7081 103.532 72.5381C100.423 72.3433 97.5764 71.4998 94.9917 70.0075C92.2348 68.4158 90.6816 66.527 90.332 64.3413C90.038 62.1235 90.9721 59.7188 93.1346 57.1273C95.297 54.5358 98.6784 51.912 103.279 49.256C108.156 46.44 112.953 44.4415 117.669 43.2605C122.386 42.0795 126.849 41.6165 131.06 41.8715C135.326 42.0946 139.161 42.9645 142.564 44.4815L130.444 52.0759C128.684 51.2517 126.751 50.7759 124.646 50.6483C122.497 50.496 120.297 50.6972 118.043 51.2522C115.79 51.8071 113.527 52.7406 111.254 54.0526C108.372 55.7166 106.595 57.3146 105.923 58.8466C105.306 60.3467 105.795 61.5568 107.389 62.477C108.509 63.1236 109.817 63.4628 111.313 63.4945C112.821 63.4693 114.714 63.1223 116.992 62.4536C119.326 61.753 122.359 60.6238 126.09 59.0663C132.439 56.3957 137.861 54.5339 142.355 53.4809C146.862 52.371 150.686 51.9544 153.825 52.2309C156.964 52.5075 159.697 53.3173 162.023 54.6603C164.867 56.3018 166.401 58.2758 166.628 60.5825C166.866 62.8323 165.827 65.2725 163.511 67.9031C161.25 70.5018 157.792 73.1451 153.136 75.8331Z" fill="white" style="fill:white;fill-opacity:1;"/>
<defs>
<linearGradient id="paint0_linear_6_192" x1="242.17" y1="11.6468" x2="12.7702" y2="12.5058" gradientUnits="userSpaceOnUse">
<stop offset="0.173077" stop-color="white" stop-opacity="0.3" style="stop-color:white;stop-opacity:0.3;"/>
<stop offset="1" stop-color="white" stop-opacity="0.3" style="stop-color:white;stop-opacity:0.3;"/>
</linearGradient>
<linearGradient id="paint1_linear_6_192" x1="113.943" y1="193.246" x2="63.2685" y2="225.217" gradientUnits="userSpaceOnUse">
<stop stop-color="#496BFF" stop-opacity="0.5" style="stop-color:#496BFF;stop-color:color(display-p3 0.2874 0.4180 1.0000);stop-opacity:0.5;"/>
<stop offset="1" stop-color="white" stop-opacity="0.1" style="stop-color:white;stop-opacity:0.1;"/>
</linearGradient>
<linearGradient id="paint2_linear_6_192" x1="96.0322" y1="94.6196" x2="-2.95209" y2="85.2109" gradientUnits="userSpaceOnUse">
<stop stop-color="white" stop-opacity="0.1" style="stop-color:white;stop-opacity:0.1;"/>
<stop offset="1" stop-color="#496BFF" stop-opacity="0.5" style="stop-color:#496BFF;stop-color:color(display-p3 0.2874 0.4180 1.0000);stop-opacity:0.5;"/>
</linearGradient>
<linearGradient id="paint3_linear_6_192" x1="98.036" y1="-8.03477" x2="-0.00475716" y2="89.9916" gradientUnits="userSpaceOnUse">
<stop stop-color="white" stop-opacity="0.1" style="stop-color:white;stop-opacity:0.1;"/>
<stop offset="1" stop-color="#496BFF" stop-opacity="0.5" style="stop-color:#496BFF;stop-color:color(display-p3 0.2874 0.4180 1.0000);stop-opacity:0.5;"/>
</linearGradient>
</defs>
</svg>
