<svg width="256" height="256" viewBox="0 0 256 256" fill="none" xmlns="http://www.w3.org/2000/svg">
<path d="M116 6.9282C123.426 2.64102 132.574 2.64102 140 6.9282L226.851 57.0718C234.277 61.359 238.851 69.282 238.851 77.8564V178.144C238.851 186.718 234.277 194.641 226.851 198.928L140 249.072C132.574 253.359 123.426 253.359 116 249.072L29.1488 198.928C21.7231 194.641 17.1488 186.718 17.1488 178.144V77.8564C17.1488 69.282 21.7231 61.359 29.1487 57.0718L116 6.9282Z" fill="black" style="fill:black;fill-opacity:1;"/>
<path d="M122 16.4641C125.713 14.3205 130.287 14.3205 134 16.4641L221.593 67.0359C225.306 69.1795 227.593 73.141 227.593 77.4282V178.572C227.593 182.859 225.306 186.821 221.593 188.964L134 239.536C130.287 241.679 125.713 241.679 122 239.536L34.4071 188.964C30.6943 186.821 28.4071 182.859 28.4071 178.572V77.4282C28.4071 73.141 30.6943 69.1795 34.4071 67.0359L122 16.4641Z" fill="url(#paint0_linear_5_179)" fill-opacity="0.6" style=""/>
<path d="M133.913 41C133.913 35.4772 137.791 33.236 142.576 35.9943L203.221 70.9544C208.006 73.7126 211.885 80.4258 211.885 85.9487V155.949C211.885 161.472 208.006 163.713 203.221 160.954L142.576 125.994C137.791 123.236 133.913 116.523 133.913 111V41Z" fill="url(#paint1_linear_5_179)" style=""/>
<path d="M174.191 125.906C169.092 122.962 164.713 119.663 161.055 116.009C157.397 112.355 154.543 108.543 152.492 104.574C150.441 100.604 149.277 96.6494 149 92.7091L161.72 99.5308C162.053 101.812 162.718 103.987 163.716 106.055C164.769 108.105 166.154 110 167.872 111.738C169.646 113.508 171.808 115.129 174.357 116.601C176.463 117.817 178.237 118.617 179.678 119.001C181.175 119.418 182.311 119.402 183.087 118.955C183.863 118.458 184.251 117.538 184.251 116.195C184.251 114.951 183.918 113.69 183.253 112.41C182.588 111.081 181.313 109.5 179.429 107.666C177.544 105.782 174.773 103.411 171.115 100.553C166.071 96.5961 161.997 93.0752 158.893 89.9899C155.845 86.9367 153.628 84.0401 152.242 81.3002C150.857 78.5105 150.164 75.6234 150.164 72.639C150.164 69.4555 151.023 67.166 152.741 65.7704C154.515 64.4068 157.064 64.0135 160.39 64.5905C163.716 65.1675 167.678 66.784 172.279 69.44C177.156 72.256 181.285 75.411 184.666 78.905C188.047 82.399 190.68 86.033 192.565 89.807C194.504 93.613 195.668 97.369 196.056 101.075L183.419 94.3758C183.253 92.4393 182.699 90.5276 181.757 88.6406C180.814 86.7038 179.54 84.8984 177.932 83.2243C176.325 81.5502 174.385 80.0571 172.112 78.7451C169.23 77.0811 166.958 76.3411 165.295 76.5252C163.688 76.7412 162.884 77.7695 162.884 79.6099C162.884 80.9032 163.244 82.2055 163.965 83.5168C164.741 84.8104 165.988 86.2766 167.706 87.9152C169.48 89.5858 171.974 91.6476 175.189 94.1005C180.676 98.2633 184.999 102.028 188.158 105.394C191.373 108.742 193.645 111.845 194.976 114.702C196.306 117.559 196.971 120.33 196.971 123.017C196.971 126.299 196.029 128.616 194.144 129.965C192.315 131.296 189.682 131.617 186.246 130.926C182.865 130.267 178.847 128.594 174.191 125.906Z" fill="white" style="fill:white;fill-opacity:1;"/>
<path d="M85 71C85 65.4772 88.9539 63.1003 93.8314 65.6912L155.651 98.5294C160.528 101.12 164.482 107.698 164.482 113.221V183.221C164.482 188.743 160.528 191.12 155.651 188.529L93.8314 155.691C88.9539 153.1 85 146.523 85 141V71Z" fill="url(#paint2_linear_5_179)" style=""/>
<path d="M104 149.16V81L145.07 104.712V117L116.637 100.584V116.232L144.073 132.072V144.168L116.637 128.328V144.168L145.735 160.968V173.256L104 149.16Z" fill="white" style="fill:white;fill-opacity:1;"/>
<path d="M42 97C42 91.4772 45.8774 89.2385 50.6604 91.9998L111.283 126.998C116.066 129.76 119.943 136.475 119.943 141.998V211.995C119.943 217.517 116.066 219.756 111.283 216.995L50.6604 181.996C45.8774 179.235 42 172.519 42 166.996V97Z" fill="url(#paint3_linear_5_179)" style=""/>
<path d="M50 170.16L71.2834 114.288L89.8233 124.992L111.107 205.44L94.4791 195.84L91.1535 182.688L69.8701 170.4L66.5445 179.712L50 170.16ZM74.1933 158.304L86.9135 165.648L80.5949 140.4L74.1933 158.304Z" fill="white" style="fill:white;fill-opacity:1;"/>
<defs>
<linearGradient id="paint0_linear_5_179" x1="277.979" y1="119.854" x2="139.765" y2="-22.225" gradientUnits="userSpaceOnUse">
<stop offset="0.173077" stop-color="white" stop-opacity="0.3" style="stop-color:white;stop-opacity:0.3;"/>
<stop offset="1" stop-color="white" stop-opacity="0.1" style="stop-color:white;stop-opacity:0.1;"/>
</linearGradient>
<linearGradient id="paint1_linear_5_179" x1="211.885" y1="132.199" x2="161.191" y2="164.205" gradientUnits="userSpaceOnUse">
<stop stop-color="#496BFF" stop-opacity="0.5" style="stop-color:#496BFF;stop-color:color(display-p3 0.2874 0.4180 1.0000);stop-opacity:0.5;"/>
<stop offset="1" stop-color="white" stop-opacity="0.1" style="stop-color:white;stop-opacity:0.1;"/>
</linearGradient>
<linearGradient id="paint2_linear_5_179" x1="164.482" y1="159.471" x2="112.913" y2="193.411" gradientUnits="userSpaceOnUse">
<stop stop-color="#496BFF" stop-opacity="0.5" style="stop-color:#496BFF;stop-color:color(display-p3 0.2874 0.4180 1.0000);stop-opacity:0.5;"/>
<stop offset="1" stop-color="white" stop-opacity="0.1" style="stop-color:white;stop-opacity:0.1;"/>
</linearGradient>
<linearGradient id="paint3_linear_5_179" x1="119.943" y1="188.246" x2="69.2685" y2="220.217" gradientUnits="userSpaceOnUse">
<stop stop-color="#496BFF" stop-opacity="0.5" style="stop-color:#496BFF;stop-color:color(display-p3 0.2874 0.4180 1.0000);stop-opacity:0.5;"/>
<stop offset="1" stop-color="white" stop-opacity="0.1" style="stop-color:white;stop-opacity:0.1;"/>
</linearGradient>
</defs>
</svg>
