<svg width="1000" height="800" viewBox="0 0 1000 800" fill="none" xmlns="http://www.w3.org/2000/svg">
<path d="M0 500C0 555.228 44.7715 600 100 600C155.228 600 200 555.228 200 500C200 444.772 155.228 400 100 400C44.7715 400 0 444.772 0 500Z" fill="#D9D9D9"/>
<path d="M200 400H100C155.228 400 200 444.772 200 500V400Z" fill="#D9D9D9"/>
<path d="M100 400H0V500C0 444.772 44.7715 400 100 400Z" fill="#D9D9D9"/>
<path d="M0 600H100C44.7715 600 0 555.228 0 500V600Z" fill="#D9D9D9"/>
<path d="M200 600V500C200 555.228 155.228 600 100 600H200Z" fill="#D9D9D9"/>
<path d="M200 600H100C155.228 600 200 644.772 200 700V600Z" fill="#D9D9D9"/>
<path d="M100 600H0V700C0 644.772 44.7715 600 100 600Z" fill="#D9D9D9"/>
<path d="M0 700C0 755.228 44.7715 800 100 800C155.228 800 200 755.228 200 700C200 644.772 155.228 600 100 600C44.7715 600 0 644.772 0 700Z" fill="#D9D9D9"/>
<path d="M0 400H100C44.7715 400 0 355.228 0 300V400Z" fill="#D9D9D9"/>
<path d="M0 300C0 355.228 44.7715 400 100 400C155.228 400 200 355.228 200 300C200 244.772 155.228 200 100 200C44.7715 200 0 244.772 0 300Z" fill="#D9D9D9"/>
<path d="M200 400V300C200 355.228 155.228 400 100 400H200Z" fill="#D9D9D9"/>
<path d="M200 200H100C155.228 200 200 244.772 200 300V200Z" fill="#D9D9D9"/>
<path d="M200 200V100C200 155.228 155.228 200 100 200H200Z" fill="#D9D9D9"/>
<path d="M200 100V200H300C244.772 200 200 155.228 200 100Z" fill="#D9D9D9"/>
<path d="M200 200V300C200 244.772 244.772 200 300 200H200Z" fill="#D9D9D9"/>
<path d="M200 100C200 155.228 244.772 200 300 200C355.228 200 400 155.228 400 100C400 44.7715 355.228 0 300 0C244.772 0 200 44.7715 200 100Z" fill="#D9D9D9"/>
<path d="M400 200V100C400 155.228 355.228 200 300 200H400Z" fill="#D9D9D9"/>
<path d="M400 200H300C355.228 200 400 244.772 400 300V200Z" fill="#D9D9D9"/>
<path d="M400 100V200H500C444.772 200 400 155.228 400 100Z" fill="#D9D9D9"/>
<path d="M400 200V300C400 244.772 444.772 200 500 200H400Z" fill="#D9D9D9"/>
<path d="M400 300C400 355.228 444.772 400 500 400C555.228 400 600 355.228 600 300C600 244.772 555.228 200 500 200C444.772 200 400 244.772 400 300Z" fill="#D9D9D9"/>
<path d="M600 200H500C555.228 200 600 244.772 600 300V200Z" fill="#D9D9D9"/>
<path d="M600 200V100C600 155.228 555.228 200 500 200H600Z" fill="#D9D9D9"/>
<path d="M600 100V200H700C644.772 200 600 155.228 600 100Z" fill="#D9D9D9"/>
<path d="M600 200V300C600 244.772 644.772 200 700 200H600Z" fill="#D9D9D9"/>
<path d="M600 100C600 155.228 644.772 200 700 200C755.228 200 800 155.228 800 100C800 44.7715 755.228 0 700 0C644.772 0 600 44.7715 600 100Z" fill="#D9D9D9"/>
<path d="M800 200V100C800 155.228 755.228 200 700 200H800Z" fill="#D9D9D9"/>
<path d="M800 200H700C755.228 200 800 244.772 800 300V200Z" fill="#D9D9D9"/>
<path d="M800 100V200H900C844.772 200 800 155.228 800 100Z" fill="#D9D9D9"/>
<path d="M800 200V300C800 244.772 844.772 200 900 200H800Z" fill="#D9D9D9"/>
<path d="M800 300C800 355.228 844.772 400 900 400C955.228 400 1000 355.228 1000 300C1000 244.772 955.228 200 900 200C844.772 200 800 244.772 800 300Z" fill="#D9D9D9"/>
<path d="M800 500C800 555.228 844.772 600 900 600C955.228 600 1000 555.228 1000 500C1000 444.772 955.228 400 900 400C844.772 400 800 444.772 800 500Z" fill="#D9D9D9"/>
<path d="M800 300V400H900C844.772 400 800 355.228 800 300Z" fill="#D9D9D9"/>
<path d="M800 400V500C800 444.772 844.772 400 900 400H800Z" fill="#D9D9D9"/>
<path d="M1000 400V300C1000 355.228 955.228 400 900 400H1000Z" fill="#D9D9D9"/>
<path d="M1000 400H900C955.228 400 1000 444.772 1000 500V400Z" fill="#D9D9D9"/>
<path d="M1000 600H900C955.228 600 1000 644.772 1000 700V600Z" fill="#D9D9D9"/>
<path d="M1000 600V500C1000 555.228 955.228 600 900 600H1000Z" fill="#D9D9D9"/>
<path d="M800 500V600H900C844.772 600 800 555.228 800 500Z" fill="#D9D9D9"/>
<path d="M800 700C800 755.228 844.772 800 900 800C955.228 800 1000 755.228 1000 700C1000 644.772 955.228 600 900 600C844.772 600 800 644.772 800 700Z" fill="#D9D9D9"/>
<path d="M800 600V700C800 644.772 844.772 600 900 600H800Z" fill="#D9D9D9"/>
</svg>
