<svg width="826" height="276" viewBox="0 0 826 276" fill="none" xmlns="http://www.w3.org/2000/svg">
<g clip-path="url(#clip0_53_34)">
<rect width="826" height="276" rx="26" fill="#FFEED1"/>
<path d="M118.232 41V23.96H124.208C126.08 23.96 127.536 24.416 128.576 25.328C129.632 26.224 130.16 27.464 130.16 29.048C130.16 30.088 129.92 30.992 129.44 31.76C128.976 32.528 128.296 33.12 127.4 33.536C126.52 33.936 125.456 34.136 124.208 34.136H119.864V41H118.232ZM119.864 32.552H124.208C125.6 32.552 126.648 32.256 127.352 31.664C128.072 31.072 128.432 30.2 128.432 29.048C128.432 27.896 128.072 27.024 127.352 26.432C126.648 25.84 125.6 25.544 124.208 25.544H119.864V32.552ZM135.624 41C134.904 41 134.336 40.824 133.92 40.472C133.504 40.104 133.296 39.536 133.296 38.768V23.96H134.88V38.648C134.88 38.952 134.96 39.184 135.12 39.344C135.28 39.504 135.52 39.584 135.84 39.584H136.848V41H135.624ZM144.215 41.288C142.999 41.288 141.967 41.008 141.119 40.448C140.271 39.872 139.615 39.088 139.151 38.096C138.703 37.088 138.479 35.936 138.479 34.64C138.479 33.344 138.703 32.2 139.151 31.208C139.599 30.2 140.239 29.416 141.071 28.856C141.919 28.28 142.935 27.992 144.119 27.992C145.255 27.992 146.239 28.264 147.071 28.808C147.903 29.352 148.535 30.12 148.967 31.112C149.415 32.104 149.639 33.264 149.639 34.592V35.096H140.135C140.199 36.6 140.591 37.76 141.311 38.576C142.031 39.376 142.999 39.776 144.215 39.776C145.143 39.776 145.903 39.552 146.495 39.104C147.087 38.656 147.495 38.064 147.719 37.328L149.423 37.448C149.103 38.568 148.487 39.488 147.575 40.208C146.663 40.928 145.543 41.288 144.215 41.288ZM140.135 33.68H147.911C147.831 32.32 147.455 31.288 146.783 30.584C146.111 29.864 145.223 29.504 144.119 29.504C143.015 29.504 142.111 29.864 141.407 30.584C140.703 31.304 140.279 32.336 140.135 33.68ZM156.156 41.288C154.876 41.288 153.852 40.984 153.084 40.376C152.316 39.752 151.932 38.912 151.932 37.856C151.932 36.8 152.268 35.968 152.94 35.36C153.612 34.752 154.596 34.328 155.892 34.088L160.596 33.2C160.596 31.936 160.324 31.008 159.78 30.416C159.236 29.808 158.412 29.504 157.308 29.504C156.332 29.504 155.556 29.736 154.98 30.2C154.404 30.664 154.02 31.32 153.828 32.168L152.148 32.024C152.388 30.792 152.948 29.816 153.828 29.096C154.724 28.36 155.884 27.992 157.308 27.992C158.892 27.992 160.1 28.44 160.932 29.336C161.764 30.232 162.18 31.512 162.18 33.176V38.48C162.18 38.912 162.244 39.208 162.372 39.368C162.516 39.512 162.74 39.584 163.044 39.584H163.428V41C163.364 41.016 163.268 41.024 163.14 41.024C163.028 41.04 162.908 41.048 162.78 41.048C162.284 41.048 161.868 40.96 161.532 40.784C161.212 40.608 160.972 40.32 160.812 39.92C160.668 39.52 160.596 38.968 160.596 38.264L160.788 38.288C160.644 38.848 160.348 39.36 159.9 39.824C159.468 40.272 158.924 40.632 158.268 40.904C157.612 41.16 156.908 41.288 156.156 41.288ZM156.3 39.872C157.18 39.872 157.94 39.696 158.58 39.344C159.22 38.992 159.716 38.52 160.068 37.928C160.42 37.32 160.596 36.64 160.596 35.888V34.616L156.228 35.432C155.316 35.608 154.644 35.88 154.212 36.248C153.796 36.616 153.588 37.104 153.588 37.712C153.588 38.4 153.828 38.936 154.308 39.32C154.788 39.688 155.452 39.872 156.3 39.872ZM170.316 41.288C169.212 41.288 168.268 41.112 167.484 40.76C166.716 40.392 166.116 39.888 165.684 39.248C165.252 38.608 165.004 37.888 164.94 37.088L166.596 36.968C166.692 37.816 167.044 38.496 167.652 39.008C168.276 39.52 169.164 39.776 170.316 39.776C171.324 39.776 172.108 39.608 172.668 39.272C173.228 38.936 173.508 38.416 173.508 37.712C173.508 37.328 173.42 37.008 173.244 36.752C173.084 36.48 172.748 36.248 172.236 36.056C171.724 35.848 170.956 35.656 169.932 35.48C168.732 35.256 167.796 34.992 167.124 34.688C166.452 34.368 165.98 33.976 165.708 33.512C165.436 33.032 165.3 32.464 165.3 31.808C165.3 30.672 165.708 29.752 166.524 29.048C167.34 28.344 168.476 27.992 169.932 27.992C170.924 27.992 171.764 28.176 172.452 28.544C173.156 28.912 173.708 29.4 174.108 30.008C174.508 30.6 174.772 31.256 174.9 31.976L173.244 32.12C173.148 31.624 172.964 31.184 172.692 30.8C172.42 30.4 172.052 30.088 171.588 29.864C171.124 29.624 170.564 29.504 169.908 29.504C168.948 29.504 168.212 29.712 167.7 30.128C167.204 30.528 166.956 31.064 166.956 31.736C166.956 32.2 167.06 32.584 167.268 32.888C167.476 33.176 167.82 33.416 168.3 33.608C168.78 33.784 169.444 33.944 170.292 34.088C171.556 34.296 172.54 34.56 173.244 34.88C173.964 35.184 174.468 35.568 174.756 36.032C175.044 36.48 175.188 37.032 175.188 37.688C175.188 38.456 174.98 39.112 174.564 39.656C174.148 40.184 173.572 40.592 172.836 40.88C172.116 41.152 171.276 41.288 170.316 41.288ZM182.887 41.288C181.671 41.288 180.639 41.008 179.791 40.448C178.943 39.872 178.287 39.088 177.823 38.096C177.375 37.088 177.151 35.936 177.151 34.64C177.151 33.344 177.375 32.2 177.823 31.208C178.271 30.2 178.911 29.416 179.743 28.856C180.591 28.28 181.607 27.992 182.791 27.992C183.927 27.992 184.911 28.264 185.743 28.808C186.575 29.352 187.207 30.12 187.639 31.112C188.087 32.104 188.311 33.264 188.311 34.592V35.096H178.807C178.871 36.6 179.263 37.76 179.983 38.576C180.703 39.376 181.671 39.776 182.887 39.776C183.815 39.776 184.575 39.552 185.167 39.104C185.759 38.656 186.167 38.064 186.391 37.328L188.095 37.448C187.775 38.568 187.159 39.488 186.247 40.208C185.335 40.928 184.215 41.288 182.887 41.288ZM178.807 33.68H186.583C186.503 32.32 186.127 31.288 185.455 30.584C184.783 29.864 183.895 29.504 182.791 29.504C181.687 29.504 180.783 29.864 180.079 30.584C179.375 31.304 178.951 32.336 178.807 33.68ZM124.616 72.384C123.112 72.384 121.792 72.032 120.656 71.328C119.536 70.608 118.664 69.584 118.04 68.256C117.432 66.928 117.128 65.344 117.128 63.504C117.128 61.664 117.432 60.08 118.04 58.752C118.664 57.408 119.536 56.376 120.656 55.656C121.792 54.936 123.112 54.576 124.616 54.576C126.6 54.576 128.16 55.104 129.296 56.16C130.432 57.216 131.168 58.632 131.504 60.408L129.776 60.528C129.536 59.2 128.984 58.144 128.12 57.36C127.272 56.576 126.104 56.184 124.616 56.184C123.448 56.184 122.432 56.48 121.568 57.072C120.704 57.648 120.032 58.488 119.552 59.592C119.072 60.68 118.832 61.984 118.832 63.504C118.832 65.024 119.072 66.328 119.552 67.416C120.032 68.504 120.704 69.336 121.568 69.912C122.432 70.488 123.448 70.776 124.616 70.776C126.168 70.776 127.384 70.352 128.264 69.504C129.16 68.656 129.712 67.504 129.92 66.048L131.648 66.168C131.456 67.416 131.056 68.504 130.448 69.432C129.84 70.36 129.048 71.088 128.072 71.616C127.096 72.128 125.944 72.384 124.616 72.384ZM139.292 72.288C138.14 72.288 137.132 72.016 136.268 71.472C135.42 70.928 134.764 70.16 134.3 69.168C133.836 68.16 133.604 66.984 133.604 65.64C133.604 64.28 133.836 63.104 134.3 62.112C134.764 61.12 135.42 60.352 136.268 59.808C137.132 59.264 138.14 58.992 139.292 58.992C140.444 58.992 141.444 59.264 142.292 59.808C143.14 60.352 143.796 61.12 144.26 62.112C144.724 63.104 144.956 64.28 144.956 65.64C144.956 66.984 144.724 68.16 144.26 69.168C143.796 70.16 143.14 70.928 142.292 71.472C141.444 72.016 140.444 72.288 139.292 72.288ZM139.292 70.776C140.54 70.776 141.516 70.32 142.22 69.408C142.94 68.48 143.3 67.224 143.3 65.64C143.3 64.056 142.94 62.808 142.22 61.896C141.516 60.968 140.54 60.504 139.292 60.504C138.044 60.504 137.06 60.968 136.34 61.896C135.62 62.808 135.26 64.056 135.26 65.64C135.26 67.224 135.62 68.48 136.34 69.408C137.06 70.32 138.044 70.776 139.292 70.776ZM147.804 72V59.28H149.244L149.316 62.616L149.124 62.472C149.252 61.688 149.516 61.04 149.916 60.528C150.332 60.016 150.836 59.632 151.428 59.376C152.02 59.12 152.66 58.992 153.348 58.992C154.324 58.992 155.124 59.208 155.748 59.64C156.388 60.072 156.86 60.656 157.164 61.392C157.468 62.112 157.62 62.92 157.62 63.816V72H156.036V64.392C156.036 63.56 155.932 62.848 155.724 62.256C155.532 61.664 155.212 61.208 154.764 60.888C154.316 60.568 153.732 60.408 153.012 60.408C151.924 60.408 151.044 60.76 150.372 61.464C149.716 62.168 149.388 63.144 149.388 64.392V72H147.804ZM162.132 72V57.96C162.132 57.048 162.388 56.32 162.9 55.776C163.412 55.232 164.204 54.96 165.276 54.96H167.1V56.376H165.396C164.82 56.376 164.396 56.528 164.124 56.832C163.852 57.12 163.716 57.536 163.716 58.08V72H162.132ZM160.332 60.696V59.28H166.98V60.696H160.332ZM169.74 72V59.28H171.324V72H169.74ZM169.692 57.168V55.032H171.372V57.168H169.692ZM175.46 72V59.28H176.828L176.924 62.76L176.708 62.64C176.916 61.504 177.292 60.664 177.836 60.12C178.38 59.56 179.132 59.28 180.092 59.28H181.196V60.816H180.044C179.404 60.816 178.86 60.96 178.412 61.248C177.964 61.52 177.62 61.912 177.38 62.424C177.156 62.936 177.044 63.544 177.044 64.248V72H175.46ZM183.312 72V59.28H184.752L184.824 62.712L184.608 62.52C184.704 61.816 184.936 61.2 185.304 60.672C185.672 60.144 186.136 59.736 186.696 59.448C187.256 59.144 187.88 58.992 188.568 58.992C189.608 58.992 190.472 59.328 191.16 60C191.848 60.656 192.264 61.568 192.408 62.736L192.072 62.688C192.184 61.92 192.416 61.264 192.768 60.72C193.136 60.16 193.608 59.736 194.184 59.448C194.76 59.144 195.408 58.992 196.128 58.992C196.976 58.992 197.704 59.192 198.312 59.592C198.92 59.976 199.384 60.528 199.704 61.248C200.024 61.968 200.184 62.832 200.184 63.84V72H198.6V64.32C198.6 63.056 198.352 62.088 197.856 61.416C197.376 60.744 196.68 60.408 195.768 60.408C195.128 60.408 194.56 60.576 194.064 60.912C193.584 61.248 193.2 61.72 192.912 62.328C192.64 62.936 192.504 63.648 192.504 64.464V72H190.92V64.392C190.92 63.16 190.696 62.192 190.248 61.488C189.816 60.768 189.128 60.408 188.184 60.408C187.544 60.408 186.976 60.576 186.48 60.912C185.984 61.248 185.592 61.712 185.304 62.304C185.032 62.896 184.896 63.592 184.896 64.392V72H183.312ZM212.764 72L208.708 59.28H210.436L213.724 70.344L216.964 59.28H218.644L221.884 70.344L225.196 59.28H226.924L222.868 72H220.9L217.804 61.68L214.732 72H212.764ZM229.202 72V59.28H230.786V72H229.202ZM229.154 57.168V55.032H230.834V57.168H229.154ZM238.236 72C237.196 72 236.428 71.76 235.932 71.28C235.436 70.784 235.188 70.032 235.188 69.024V56.304H236.772V68.976C236.772 69.568 236.9 69.984 237.156 70.224C237.428 70.464 237.836 70.584 238.38 70.584H240.06V72H238.236ZM233.196 60.696V59.28H240.06V60.696H233.196ZM242.749 72V54.96H244.333V62.304L244.141 62.28C244.269 61.528 244.525 60.912 244.909 60.432C245.309 59.952 245.805 59.592 246.397 59.352C246.989 59.112 247.637 58.992 248.341 58.992C249.269 58.992 250.045 59.2 250.669 59.616C251.293 60.032 251.765 60.608 252.085 61.344C252.405 62.064 252.565 62.888 252.565 63.816V72H250.981V64.392C250.981 63.112 250.741 62.128 250.261 61.44C249.781 60.752 249.021 60.408 247.981 60.408C246.861 60.408 245.973 60.768 245.317 61.488C244.661 62.192 244.333 63.168 244.333 64.416V72H242.749ZM266.683 72.288C265.419 72.288 264.403 71.864 263.635 71.016C262.883 70.152 262.507 68.968 262.507 67.464V59.28H264.091V66.984C264.091 68.296 264.339 69.272 264.835 69.912C265.347 70.552 266.099 70.872 267.091 70.872C268.195 70.872 269.059 70.512 269.683 69.792C270.323 69.072 270.643 68.096 270.643 66.864V59.28H272.227V72H270.739L270.715 68.736L270.955 68.856C270.747 69.944 270.267 70.792 269.515 71.4C268.779 71.992 267.835 72.288 266.683 72.288ZM280.449 72.288C279.345 72.288 278.401 72.112 277.617 71.76C276.849 71.392 276.249 70.888 275.817 70.248C275.385 69.608 275.137 68.888 275.073 68.088L276.729 67.968C276.825 68.816 277.177 69.496 277.785 70.008C278.409 70.52 279.297 70.776 280.449 70.776C281.457 70.776 282.241 70.608 282.801 70.272C283.361 69.936 283.641 69.416 283.641 68.712C283.641 68.328 283.553 68.008 283.377 67.752C283.217 67.48 282.881 67.248 282.369 67.056C281.857 66.848 281.089 66.656 280.065 66.48C278.865 66.256 277.929 65.992 277.257 65.688C276.585 65.368 276.113 64.976 275.841 64.512C275.569 64.032 275.433 63.464 275.433 62.808C275.433 61.672 275.841 60.752 276.657 60.048C277.473 59.344 278.609 58.992 280.065 58.992C281.057 58.992 281.897 59.176 282.585 59.544C283.289 59.912 283.841 60.4 284.241 61.008C284.641 61.6 284.905 62.256 285.033 62.976L283.377 63.12C283.281 62.624 283.097 62.184 282.825 61.8C282.553 61.4 282.185 61.088 281.721 60.864C281.257 60.624 280.697 60.504 280.041 60.504C279.081 60.504 278.345 60.712 277.833 61.128C277.337 61.528 277.089 62.064 277.089 62.736C277.089 63.2 277.193 63.584 277.401 63.888C277.609 64.176 277.953 64.416 278.433 64.608C278.913 64.784 279.577 64.944 280.425 65.088C281.689 65.296 282.673 65.56 283.377 65.88C284.097 66.184 284.601 66.568 284.889 67.032C285.177 67.48 285.321 68.032 285.321 68.688C285.321 69.456 285.113 70.112 284.697 70.656C284.281 71.184 283.705 71.592 282.969 71.88C282.249 72.152 281.409 72.288 280.449 72.288ZM123.56 103.288C122.6 103.288 121.76 103.048 121.04 102.568C120.32 102.072 119.784 101.432 119.432 100.648L119.36 103H117.968V85.96H119.552V92.512C119.872 91.824 120.384 91.232 121.088 90.736C121.792 90.24 122.616 89.992 123.56 89.992C124.664 89.992 125.616 90.264 126.416 90.808C127.232 91.352 127.864 92.12 128.312 93.112C128.76 94.104 128.984 95.28 128.984 96.64C128.984 98 128.76 99.176 128.312 100.168C127.864 101.16 127.232 101.928 126.416 102.472C125.616 103.016 124.664 103.288 123.56 103.288ZM123.488 101.776C124.656 101.776 125.584 101.32 126.272 100.408C126.96 99.48 127.304 98.224 127.304 96.64C127.304 95.056 126.96 93.808 126.272 92.896C125.584 91.968 124.664 91.504 123.512 91.504C122.696 91.504 121.992 91.72 121.4 92.152C120.808 92.568 120.352 93.16 120.032 93.928C119.712 94.696 119.552 95.6 119.552 96.64C119.552 97.664 119.712 98.568 120.032 99.352C120.352 100.12 120.8 100.72 121.376 101.152C121.968 101.568 122.672 101.776 123.488 101.776ZM136.692 103.288C135.476 103.288 134.444 103.008 133.596 102.448C132.748 101.872 132.092 101.088 131.628 100.096C131.18 99.088 130.956 97.936 130.956 96.64C130.956 95.344 131.18 94.2 131.628 93.208C132.076 92.2 132.716 91.416 133.548 90.856C134.396 90.28 135.412 89.992 136.596 89.992C137.732 89.992 138.716 90.264 139.548 90.808C140.38 91.352 141.012 92.12 141.444 93.112C141.892 94.104 142.116 95.264 142.116 96.592V97.096H132.612C132.676 98.6 133.068 99.76 133.788 100.576C134.508 101.376 135.476 101.776 136.692 101.776C137.62 101.776 138.38 101.552 138.972 101.104C139.564 100.656 139.972 100.064 140.196 99.328L141.9 99.448C141.58 100.568 140.964 101.488 140.052 102.208C139.14 102.928 138.02 103.288 136.692 103.288ZM132.612 95.68H140.388C140.308 94.32 139.932 93.288 139.26 92.584C138.588 91.864 137.7 91.504 136.596 91.504C135.492 91.504 134.588 91.864 133.884 92.584C133.18 93.304 132.756 94.336 132.612 95.68ZM145.749 103V88.96C145.749 88.048 146.005 87.32 146.517 86.776C147.029 86.232 147.821 85.96 148.893 85.96H150.717V87.376H149.013C148.437 87.376 148.013 87.528 147.741 87.832C147.469 88.12 147.333 88.536 147.333 89.08V103H145.749ZM143.949 91.696V90.28H150.597V91.696H143.949ZM157.456 103.288C156.304 103.288 155.296 103.016 154.432 102.472C153.584 101.928 152.928 101.16 152.464 100.168C152 99.16 151.768 97.984 151.768 96.64C151.768 95.28 152 94.104 152.464 93.112C152.928 92.12 153.584 91.352 154.432 90.808C155.296 90.264 156.304 89.992 157.456 89.992C158.608 89.992 159.608 90.264 160.456 90.808C161.304 91.352 161.96 92.12 162.424 93.112C162.888 94.104 163.12 95.28 163.12 96.64C163.12 97.984 162.888 99.16 162.424 100.168C161.96 101.16 161.304 101.928 160.456 102.472C159.608 103.016 158.608 103.288 157.456 103.288ZM157.456 101.776C158.704 101.776 159.68 101.32 160.384 100.408C161.104 99.48 161.464 98.224 161.464 96.64C161.464 95.056 161.104 93.808 160.384 92.896C159.68 91.968 158.704 91.504 157.456 91.504C156.208 91.504 155.224 91.968 154.504 92.896C153.784 93.808 153.424 95.056 153.424 96.64C153.424 98.224 153.784 99.48 154.504 100.408C155.224 101.32 156.208 101.776 157.456 101.776ZM165.968 103V90.28H167.336L167.432 93.76L167.216 93.64C167.424 92.504 167.8 91.664 168.344 91.12C168.888 90.56 169.64 90.28 170.6 90.28H171.704V91.816H170.552C169.912 91.816 169.368 91.96 168.92 92.248C168.472 92.52 168.128 92.912 167.888 93.424C167.664 93.936 167.552 94.544 167.552 95.248V103H165.968ZM178.692 103.288C177.476 103.288 176.444 103.008 175.596 102.448C174.748 101.872 174.092 101.088 173.628 100.096C173.18 99.088 172.956 97.936 172.956 96.64C172.956 95.344 173.18 94.2 173.628 93.208C174.076 92.2 174.716 91.416 175.548 90.856C176.396 90.28 177.412 89.992 178.596 89.992C179.732 89.992 180.716 90.264 181.548 90.808C182.38 91.352 183.012 92.12 183.444 93.112C183.892 94.104 184.116 95.264 184.116 96.592V97.096H174.612C174.676 98.6 175.068 99.76 175.788 100.576C176.508 101.376 177.476 101.776 178.692 101.776C179.62 101.776 180.38 101.552 180.972 101.104C181.564 100.656 181.972 100.064 182.196 99.328L183.9 99.448C183.58 100.568 182.964 101.488 182.052 102.208C181.14 102.928 180.02 103.288 178.692 103.288ZM174.612 95.68H182.388C182.308 94.32 181.932 93.288 181.26 92.584C180.588 91.864 179.7 91.504 178.596 91.504C177.492 91.504 176.588 91.864 175.884 92.584C175.18 93.304 174.756 94.336 174.612 95.68ZM193.179 106.6V90.28H194.619L194.667 93.496L194.403 93.376C194.723 92.272 195.275 91.432 196.059 90.856C196.843 90.28 197.755 89.992 198.795 89.992C199.995 89.992 200.987 90.296 201.771 90.904C202.571 91.496 203.171 92.296 203.571 93.304C203.987 94.296 204.195 95.408 204.195 96.64C204.195 97.872 203.995 98.992 203.595 100C203.195 100.992 202.595 101.792 201.795 102.4C200.995 102.992 199.995 103.288 198.795 103.288C198.091 103.288 197.435 103.152 196.827 102.88C196.235 102.592 195.731 102.208 195.315 101.728C194.915 101.248 194.643 100.704 194.499 100.096L194.763 99.784V106.6H193.179ZM198.675 101.776C199.859 101.776 200.795 101.32 201.483 100.408C202.171 99.496 202.515 98.24 202.515 96.64C202.515 95.04 202.171 93.784 201.483 92.872C200.795 91.96 199.851 91.504 198.651 91.504C197.867 91.504 197.179 91.712 196.587 92.128C196.011 92.528 195.563 93.112 195.243 93.88C194.923 94.648 194.763 95.568 194.763 96.64C194.763 97.712 194.923 98.632 195.243 99.4C195.563 100.168 196.019 100.76 196.611 101.176C197.203 101.576 197.891 101.776 198.675 101.776ZM209.523 103C208.803 103 208.235 102.824 207.819 102.472C207.403 102.104 207.195 101.536 207.195 100.768V85.96H208.779V100.648C208.779 100.952 208.859 101.184 209.019 101.344C209.179 101.504 209.419 101.584 209.739 101.584H210.747V103H209.523ZM216.719 103.288C215.439 103.288 214.415 102.984 213.647 102.376C212.879 101.752 212.495 100.912 212.495 99.856C212.495 98.8 212.831 97.968 213.503 97.36C214.175 96.752 215.159 96.328 216.455 96.088L221.159 95.2C221.159 93.936 220.887 93.008 220.343 92.416C219.799 91.808 218.975 91.504 217.871 91.504C216.895 91.504 216.119 91.736 215.543 92.2C214.967 92.664 214.583 93.32 214.391 94.168L212.711 94.024C212.951 92.792 213.511 91.816 214.391 91.096C215.287 90.36 216.447 89.992 217.871 89.992C219.455 89.992 220.663 90.44 221.495 91.336C222.327 92.232 222.743 93.512 222.743 95.176V100.48C222.743 100.912 222.807 101.208 222.935 101.368C223.079 101.512 223.303 101.584 223.607 101.584H223.991V103C223.927 103.016 223.831 103.024 223.703 103.024C223.591 103.04 223.471 103.048 223.343 103.048C222.847 103.048 222.431 102.96 222.095 102.784C221.775 102.608 221.535 102.32 221.375 101.92C221.231 101.52 221.159 100.968 221.159 100.264L221.351 100.288C221.207 100.848 220.911 101.36 220.463 101.824C220.031 102.272 219.487 102.632 218.831 102.904C218.175 103.16 217.471 103.288 216.719 103.288ZM216.863 101.872C217.743 101.872 218.503 101.696 219.143 101.344C219.783 100.992 220.279 100.52 220.631 99.928C220.983 99.32 221.159 98.64 221.159 97.888V96.616L216.791 97.432C215.879 97.608 215.207 97.88 214.775 98.248C214.359 98.616 214.151 99.104 214.151 99.712C214.151 100.4 214.391 100.936 214.871 101.32C215.351 101.688 216.015 101.872 216.863 101.872ZM231.19 103.288C230.006 103.288 228.99 103.008 228.142 102.448C227.294 101.872 226.638 101.088 226.174 100.096C225.726 99.088 225.502 97.936 225.502 96.64C225.502 95.344 225.726 94.2 226.174 93.208C226.638 92.2 227.294 91.416 228.142 90.856C228.99 90.28 230.006 89.992 231.19 89.992C232.166 89.992 233.022 90.168 233.758 90.52C234.494 90.872 235.094 91.376 235.558 92.032C236.022 92.688 236.334 93.464 236.494 94.36L234.838 94.456C234.646 93.512 234.23 92.784 233.59 92.272C232.966 91.76 232.166 91.504 231.19 91.504C229.942 91.504 228.958 91.968 228.238 92.896C227.518 93.808 227.158 95.056 227.158 96.64C227.158 98.224 227.518 99.48 228.238 100.408C228.958 101.32 229.942 101.776 231.19 101.776C232.166 101.776 232.974 101.504 233.614 100.96C234.27 100.4 234.686 99.6 234.862 98.56L236.518 98.68C236.358 99.608 236.038 100.416 235.558 101.104C235.094 101.792 234.494 102.328 233.758 102.712C233.022 103.096 232.166 103.288 231.19 103.288ZM239.116 103V90.28H240.7V103H239.116ZM239.068 88.168V86.032H240.748V88.168H239.068ZM244.835 103V90.28H246.275L246.347 93.616L246.155 93.472C246.283 92.688 246.547 92.04 246.947 91.528C247.363 91.016 247.867 90.632 248.459 90.376C249.051 90.12 249.691 89.992 250.379 89.992C251.355 89.992 252.155 90.208 252.779 90.64C253.419 91.072 253.891 91.656 254.195 92.392C254.499 93.112 254.651 93.92 254.651 94.816V103H253.067V95.392C253.067 94.56 252.963 93.848 252.755 93.256C252.563 92.664 252.243 92.208 251.795 91.888C251.347 91.568 250.763 91.408 250.043 91.408C248.955 91.408 248.075 91.76 247.403 92.464C246.747 93.168 246.419 94.144 246.419 95.392V103H244.835ZM263.016 106.888C262.12 106.888 261.304 106.728 260.568 106.408C259.848 106.104 259.256 105.672 258.792 105.112C258.328 104.552 258.032 103.904 257.904 103.168L259.56 103.072C259.704 103.76 260.056 104.312 260.616 104.728C261.176 105.16 261.976 105.376 263.016 105.376C264.248 105.376 265.192 105.088 265.848 104.512C266.52 103.936 266.856 103.096 266.856 101.992V99.808C266.536 100.576 266.024 101.192 265.32 101.656C264.616 102.12 263.808 102.352 262.896 102.352C261.824 102.352 260.872 102.096 260.04 101.584C259.224 101.056 258.584 100.328 258.12 99.4C257.672 98.472 257.448 97.392 257.448 96.16C257.448 94.928 257.672 93.856 258.12 92.944C258.584 92.016 259.216 91.296 260.016 90.784C260.832 90.256 261.768 89.992 262.824 89.992C263.8 89.992 264.648 90.24 265.368 90.736C266.104 91.216 266.624 91.856 266.928 92.656V90.28H268.44V101.992C268.44 103 268.224 103.872 267.792 104.608C267.36 105.344 266.736 105.904 265.92 106.288C265.12 106.688 264.152 106.888 263.016 106.888ZM262.968 100.84C264.136 100.84 265.072 100.424 265.776 99.592C266.496 98.744 266.856 97.6 266.856 96.16C266.872 95.232 266.72 94.424 266.4 93.736C266.08 93.032 265.624 92.488 265.032 92.104C264.44 91.704 263.752 91.504 262.968 91.504C261.768 91.504 260.824 91.928 260.136 92.776C259.448 93.608 259.104 94.736 259.104 96.16C259.104 97.6 259.448 98.744 260.136 99.592C260.84 100.424 261.784 100.84 262.968 100.84ZM127.328 134.288C126.048 134.288 125.024 133.984 124.256 133.376C123.488 132.752 123.104 131.912 123.104 130.856C123.104 129.8 123.44 128.968 124.112 128.36C124.784 127.752 125.768 127.328 127.064 127.088L131.768 126.2C131.768 124.936 131.496 124.008 130.952 123.416C130.408 122.808 129.584 122.504 128.48 122.504C127.504 122.504 126.728 122.736 126.152 123.2C125.576 123.664 125.192 124.32 125 125.168L123.32 125.024C123.56 123.792 124.12 122.816 125 122.096C125.896 121.36 127.056 120.992 128.48 120.992C130.064 120.992 131.272 121.44 132.104 122.336C132.936 123.232 133.352 124.512 133.352 126.176V131.48C133.352 131.912 133.416 132.208 133.544 132.368C133.688 132.512 133.912 132.584 134.216 132.584H134.6V134C134.536 134.016 134.44 134.024 134.312 134.024C134.2 134.04 134.08 134.048 133.952 134.048C133.456 134.048 133.04 133.96 132.704 133.784C132.384 133.608 132.144 133.32 131.984 132.92C131.84 132.52 131.768 131.968 131.768 131.264L131.96 131.288C131.816 131.848 131.52 132.36 131.072 132.824C130.64 133.272 130.096 133.632 129.44 133.904C128.784 134.16 128.08 134.288 127.328 134.288ZM127.472 132.872C128.352 132.872 129.112 132.696 129.752 132.344C130.392 131.992 130.888 131.52 131.24 130.928C131.592 130.32 131.768 129.64 131.768 128.888V127.616L127.4 128.432C126.488 128.608 125.816 128.88 125.384 129.248C124.968 129.616 124.76 130.104 124.76 130.712C124.76 131.4 125 131.936 125.48 132.32C125.96 132.688 126.624 132.872 127.472 132.872ZM136.999 134V121.28H138.439L138.511 124.616L138.319 124.472C138.447 123.688 138.711 123.04 139.111 122.528C139.527 122.016 140.031 121.632 140.623 121.376C141.215 121.12 141.855 120.992 142.543 120.992C143.519 120.992 144.319 121.208 144.943 121.64C145.583 122.072 146.055 122.656 146.359 123.392C146.663 124.112 146.815 124.92 146.815 125.816V134H145.231V126.392C145.231 125.56 145.127 124.848 144.919 124.256C144.727 123.664 144.407 123.208 143.959 122.888C143.511 122.568 142.927 122.408 142.207 122.408C141.119 122.408 140.239 122.76 139.567 123.464C138.911 124.168 138.583 125.144 138.583 126.392V134H136.999ZM161.581 134.288C160.429 134.288 159.421 134.016 158.557 133.472C157.709 132.928 157.053 132.16 156.589 131.168C156.125 130.16 155.893 128.984 155.893 127.64C155.893 126.28 156.125 125.104 156.589 124.112C157.053 123.12 157.709 122.352 158.557 121.808C159.421 121.264 160.429 120.992 161.581 120.992C162.733 120.992 163.733 121.264 164.581 121.808C165.429 122.352 166.085 123.12 166.549 124.112C167.013 125.104 167.245 126.28 167.245 127.64C167.245 128.984 167.013 130.16 166.549 131.168C166.085 132.16 165.429 132.928 164.581 133.472C163.733 134.016 162.733 134.288 161.581 134.288ZM161.581 132.776C162.829 132.776 163.805 132.32 164.509 131.408C165.229 130.48 165.589 129.224 165.589 127.64C165.589 126.056 165.229 124.808 164.509 123.896C163.805 122.968 162.829 122.504 161.581 122.504C160.333 122.504 159.349 122.968 158.629 123.896C157.909 124.808 157.549 126.056 157.549 127.64C157.549 129.224 157.909 130.48 158.629 131.408C159.349 132.32 160.333 132.776 161.581 132.776ZM170.093 134V121.28H171.461L171.557 124.76L171.341 124.64C171.549 123.504 171.925 122.664 172.469 122.12C173.013 121.56 173.765 121.28 174.725 121.28H175.829V122.816H174.677C174.037 122.816 173.493 122.96 173.045 123.248C172.597 123.52 172.253 123.912 172.013 124.424C171.789 124.936 171.677 125.544 171.677 126.248V134H170.093ZM182.433 134.288C181.329 134.288 180.377 134.016 179.577 133.472C178.777 132.928 178.161 132.16 177.729 131.168C177.297 130.176 177.081 129 177.081 127.64C177.081 126.28 177.297 125.104 177.729 124.112C178.161 123.12 178.777 122.352 179.577 121.808C180.377 121.264 181.329 120.992 182.433 120.992C183.361 120.992 184.185 121.224 184.905 121.688C185.641 122.136 186.177 122.744 186.513 123.512V116.96H188.097V134H186.705L186.633 131.624C186.281 132.456 185.721 133.112 184.953 133.592C184.201 134.056 183.361 134.288 182.433 134.288ZM182.697 132.776C183.497 132.776 184.177 132.568 184.737 132.152C185.313 131.72 185.753 131.12 186.057 130.352C186.361 129.568 186.513 128.664 186.513 127.64C186.513 126.616 186.361 125.72 186.057 124.952C185.753 124.184 185.313 123.584 184.737 123.152C184.177 122.72 183.497 122.504 182.697 122.504C181.497 122.504 180.537 122.968 179.817 123.896C179.097 124.808 178.737 126.056 178.737 127.64C178.737 129.208 179.097 130.456 179.817 131.384C180.537 132.312 181.497 132.776 182.697 132.776ZM196.668 134.288C195.452 134.288 194.42 134.008 193.572 133.448C192.724 132.872 192.068 132.088 191.604 131.096C191.156 130.088 190.932 128.936 190.932 127.64C190.932 126.344 191.156 125.2 191.604 124.208C192.052 123.2 192.692 122.416 193.524 121.856C194.372 121.28 195.388 120.992 196.572 120.992C197.708 120.992 198.692 121.264 199.524 121.808C200.356 122.352 200.988 123.12 201.42 124.112C201.868 125.104 202.092 126.264 202.092 127.592V128.096H192.588C192.652 129.6 193.044 130.76 193.764 131.576C194.484 132.376 195.452 132.776 196.668 132.776C197.596 132.776 198.356 132.552 198.948 132.104C199.54 131.656 199.948 131.064 200.172 130.328L201.876 130.448C201.556 131.568 200.94 132.488 200.028 133.208C199.116 133.928 197.996 134.288 196.668 134.288ZM192.588 126.68H200.364C200.284 125.32 199.908 124.288 199.236 123.584C198.564 122.864 197.676 122.504 196.572 122.504C195.468 122.504 194.564 122.864 193.86 123.584C193.156 124.304 192.732 125.336 192.588 126.68ZM204.921 134V121.28H206.289L206.385 124.76L206.169 124.64C206.377 123.504 206.753 122.664 207.297 122.12C207.841 121.56 208.593 121.28 209.553 121.28H210.657V122.816H209.505C208.865 122.816 208.321 122.96 207.873 123.248C207.425 123.52 207.081 123.912 206.841 124.424C206.617 124.936 206.505 125.544 206.505 126.248V134H204.921Z" fill="black"/>
<path d="M577.665 354.415C598.929 272.758 598.041 257.454 418.988 264.783C245.9 271.869 323.909 169.187 201.713 229.765C140.99 259.869 68.7243 219.045 60.6504 159.17" stroke="black" stroke-width="3"/>
<path d="M23.951 49.4564C26.0404 59.0412 35.5007 65.1174 45.0834 63.0274C54.6674 60.9391 56.8859 52.3192 54.7986 42.735L54.2944 40.4214C52.2063 30.8384 46.6018 23.9222 37.0177 26.0105C27.4357 28.0984 21.3589 37.5608 23.4468 47.1428L23.951 49.4564Z" fill="#BE5C00"/>
<path d="M44.2293 142.52C46.3174 152.103 55.7788 158.18 65.3617 156.091C74.9447 154.003 77.1638 145.381 75.0759 135.799L74.5717 133.485C72.4827 123.903 66.8793 116.987 57.2962 119.075C47.7132 121.163 41.638 130.623 43.7251 140.207L44.2293 142.52Z" fill="#DE6C00"/>
<path d="M31.6309 29.2906C34.3202 28.7059 38.1141 26.2074 41.1083 28.5909C35.3968 39.8441 35.0523 64.8058 41.1157 92.6226C47.1761 120.44 57.8757 142.996 67.7492 150.853C66.0192 154.265 61.6485 154.475 58.9601 155.06C47.398 157.58 33.7744 132.191 25.8747 95.9434C17.9756 59.6922 20.0696 31.8096 31.6309 29.2906Z" fill="#A42C00"/>
<path d="M61.4752 160.307C64.436 160.784 65.4897 158.293 64.8523 155.373L64.476 153.648C63.8395 150.728 60.9577 148.878 58.0387 149.513C55.1198 150.149 53.268 153.032 53.9044 155.951L54.2797 157.678C54.9162 160.597 58.6879 161.884 61.4752 160.307Z" fill="#E24A13"/>
<path d="M72.0253 71.52C73.1379 69.9686 74.2132 68.3882 75.2467 66.7858L60.858 59.7463C60.5076 60.2895 60.1431 60.8252 59.766 61.3511L72.0253 71.52Z" fill="#BCA793"/>
<path d="M80.9769 55.6434C81.2537 53.7546 81.4842 51.857 81.6673 49.959L65.6526 50.3054C65.5905 50.9488 65.5124 51.592 65.4186 52.2323L80.9769 55.6434Z" fill="#BCA793"/>
<path d="M80.6653 39.9272C80.054 38.1187 79.3974 36.3235 78.6984 34.5494L64.5883 42.1317C64.8252 42.7331 65.0478 43.3417 65.255 43.9547L80.6653 39.9272Z" fill="#BCA793"/>
<path d="M74.3831 26.804C73.184 25.3185 71.9471 23.8612 70.6777 22.4383L60.0607 34.4329C60.491 34.9152 60.9104 35.4093 61.3168 35.9128L74.3831 26.804Z" fill="#BCA793"/>
<path d="M63.9331 16.0799C62.42 14.9158 60.8767 13.7879 59.3098 12.7012L51.7907 26.8452C52.3218 27.2136 52.845 27.5959 53.3579 27.9905L63.9331 16.0799Z" fill="#BCA793"/>
<rect x="359" y="18" width="449" height="241" rx="17" fill="black"/>
<path d="M585.021 30C604.927 30.0001 621.041 46.3546 621.041 66.5C621.041 86.6454 604.927 103 585.021 103C565.114 103 549 86.6455 549 66.5C549 46.3545 565.114 30 585.021 30Z" fill="white" stroke="#CFCECE" stroke-width="2"/>
<circle cx="585.02" cy="66.5001" r="29.7838" fill="#F3F2F2" stroke="#CFCECE" stroke-width="2"/>
<path d="M583.388 41.0406C584.418 40.4461 585.686 40.4461 586.716 41.0406L606.446 52.4316C607.476 53.0262 608.11 54.1249 608.11 55.3139V78.096C608.11 79.285 607.476 80.3837 606.446 80.9782L586.716 92.3693C585.686 92.9638 584.418 92.9638 583.388 92.3693L563.658 80.9782C562.628 80.3837 561.994 79.285 561.994 78.096V55.3139C561.994 54.1249 562.628 53.0262 563.658 52.4316L583.388 41.0406Z" fill="black"/>
<path d="M565.707 57.9686C565.707 57.0495 566.353 56.677 567.148 57.1365L582.28 65.8725C583.076 66.332 583.722 67.4495 583.722 68.3686V85.8405C583.722 86.7595 583.076 87.132 582.28 86.6725L567.148 77.9365C566.353 77.477 565.707 76.3595 565.707 75.4405V57.9686Z" fill="url(#paint0_linear_53_34)" fill-opacity="0.8"/>
<path d="M586.3 68.369C586.3 67.45 586.945 66.3324 587.741 65.8729L602.873 57.1365C603.669 56.677 604.314 57.0495 604.314 57.9686V75.4405C604.314 76.3595 603.669 77.477 602.873 77.9366L587.741 86.6729C586.945 87.1324 586.3 86.7599 586.3 85.8409V68.369Z" fill="url(#paint1_linear_53_34)" fill-opacity="0.8"/>
<path d="M568.397 55.0565C567.601 54.5969 567.601 53.8519 568.397 53.3924L583.528 44.656C584.324 44.1965 585.615 44.1965 586.411 44.656L601.542 53.392C602.338 53.8515 602.338 54.5965 601.542 55.0561L586.41 63.7924C585.614 64.2519 584.324 64.2519 583.528 63.7924L568.397 55.0565Z" fill="url(#paint2_linear_53_34)" fill-opacity="0.8"/>
<path d="M568.203 76.5146L572.631 64.8928L576.487 67.1193L580.914 83.8531L577.455 81.8563L576.764 79.1205L572.337 76.5645L571.645 78.5015L568.203 76.5146ZM573.236 74.0485L575.882 75.5761L574.567 70.3243L573.236 74.0485Z" fill="white"/>
<path d="M590.876 82.7748V68.597L599.419 63.6647V66.2207L593.505 69.6353V72.8903L599.212 69.5954V72.1115L593.505 75.4063V78.7012L599.558 75.2066V77.7626L590.876 82.7748Z" fill="white"/>
<path d="M589.865 56.8938C588.804 57.5062 587.754 57.9519 586.716 58.2308C585.677 58.5097 584.693 58.6275 583.765 58.5841C582.837 58.5407 582.003 58.339 581.265 57.9791L583.816 56.3972C584.262 56.5745 584.723 56.6809 585.199 56.7163C585.678 56.7398 586.163 56.6872 586.655 56.5585C587.158 56.4231 587.675 56.2023 588.206 55.8961C588.644 55.6432 588.972 55.4069 589.191 55.1873C589.422 54.961 589.537 54.7547 589.538 54.5684C589.529 54.3769 589.403 54.2113 589.161 54.0716C588.937 53.9423 588.676 53.871 588.376 53.8578C588.067 53.8394 587.65 53.9045 587.124 54.0532C586.588 54.1968 585.873 54.4494 584.977 54.8111C583.74 55.3082 582.682 55.6758 581.804 55.9141C580.937 56.1457 580.184 56.2438 579.547 56.2084C578.9 56.1679 578.308 55.9925 577.77 55.6821C577.197 55.351 576.874 54.9581 576.801 54.5034C576.74 54.0421 576.934 53.5419 577.384 53.0029C577.834 52.4638 578.537 51.918 579.494 51.3656C580.508 50.7798 581.506 50.3641 582.487 50.1185C583.468 49.8728 584.397 49.7765 585.273 49.8295C586.16 49.8759 586.958 50.0569 587.666 50.3724L585.144 51.9521C584.778 51.7807 584.376 51.6817 583.938 51.6552C583.492 51.6235 583.034 51.6654 582.565 51.7808C582.096 51.8962 581.626 52.0904 581.153 52.3633C580.553 52.7094 580.184 53.0418 580.044 53.3605C579.916 53.6725 580.017 53.9242 580.349 54.1156C580.582 54.2501 580.854 54.3207 581.165 54.3273C581.479 54.322 581.873 54.2499 582.346 54.1108C582.832 53.965 583.463 53.7302 584.239 53.4062C585.559 52.8507 586.687 52.4634 587.622 52.2444C588.56 52.0135 589.355 51.9268 590.008 51.9844C590.661 52.0419 591.229 52.2103 591.713 52.4897C592.305 52.8311 592.624 53.2418 592.671 53.7216C592.721 54.1895 592.505 54.6971 592.023 55.2443C591.552 55.7849 590.833 56.3347 589.865 56.8938Z" fill="white"/>
<path d="M634 84.5C634 94.165 626.389 102 617 102C607.611 102 600 94.165 600 84.5C600 74.835 607.611 67 617 67C626.389 67 634 74.835 634 84.5Z" fill="#25D366"/>
<path fill-rule="evenodd" clip-rule="evenodd" d="M625.34 76.0055C623.127 73.8217 620.185 72.6184 617.049 72.6173C610.589 72.6173 605.331 77.7999 605.329 84.1702C605.328 86.2066 605.868 88.1943 606.894 89.9461L605.231 95.9336L611.444 94.327C613.156 95.2478 615.083 95.7325 617.044 95.7331H617.049C623.509 95.7331 628.767 90.5499 628.769 84.1796C628.77 81.0922 627.553 78.1899 625.34 76.006V76.0055ZM617.049 93.7819H617.046C615.298 93.7814 613.583 93.3182 612.087 92.4435L611.732 92.2352L608.045 93.1886L609.029 89.6447L608.797 89.2813C607.822 87.7523 607.307 85.985 607.308 84.1708C607.31 78.8763 611.68 74.5684 617.053 74.5684C619.655 74.5695 622.101 75.5695 623.94 77.3849C625.78 79.1998 626.792 81.613 626.791 84.1785C626.788 89.4736 622.418 93.7814 617.049 93.7814V93.7819ZM622.393 86.59C622.1 86.4454 620.66 85.7474 620.391 85.651C620.123 85.5546 619.928 85.5064 619.733 85.7956C619.538 86.0848 618.976 86.7352 618.806 86.9274C618.635 87.1202 618.464 87.144 618.171 86.9994C617.878 86.8548 616.935 86.5501 615.816 85.5668C614.945 84.8012 614.358 83.8561 614.187 83.5669C614.016 83.2777 614.169 83.1215 614.315 82.978C614.446 82.8484 614.608 82.6406 614.754 82.4722C614.901 82.3038 614.949 82.183 615.047 81.9908C615.145 81.798 615.096 81.6296 615.023 81.485C614.95 81.3404 614.364 79.9194 614.12 79.3416C613.882 78.7788 613.641 78.8552 613.461 78.8458C613.29 78.8375 613.095 78.8358 612.9 78.8358C612.704 78.8358 612.387 78.9078 612.119 79.197C611.85 79.4862 611.094 80.1848 611.094 81.6052C611.094 83.0256 612.143 84.399 612.29 84.5918C612.436 84.7846 614.355 87.7002 617.292 88.9511C617.991 89.2486 618.536 89.4264 618.962 89.5594C619.663 89.7793 620.302 89.7483 620.806 89.6741C621.369 89.591 622.539 88.9755 622.783 88.3013C623.027 87.6271 623.027 87.0487 622.953 86.9285C622.88 86.8083 622.685 86.7357 622.392 86.5911L622.393 86.59Z" fill="white"/>
<path d="M554.242 128.32C552.949 128.32 551.796 128.027 550.782 127.44C549.782 126.853 548.996 126.007 548.422 124.9C547.862 123.793 547.582 122.467 547.582 120.92C547.582 119.413 547.856 118.107 548.402 117C548.949 115.88 549.729 115.013 550.742 114.4C551.756 113.787 552.942 113.48 554.302 113.48C556.156 113.48 557.596 113.94 558.622 114.86C559.662 115.767 560.329 117.067 560.622 118.76L557.462 118.88C557.302 117.987 556.956 117.293 556.422 116.8C555.889 116.293 555.182 116.04 554.302 116.04C553.542 116.04 552.896 116.24 552.362 116.64C551.829 117.04 551.422 117.607 551.142 118.34C550.862 119.073 550.722 119.933 550.722 120.92C550.722 121.92 550.862 122.787 551.142 123.52C551.436 124.24 551.849 124.793 552.382 125.18C552.916 125.567 553.549 125.76 554.282 125.76C555.242 125.76 555.982 125.493 556.502 124.96C557.036 124.413 557.369 123.66 557.502 122.7L560.682 122.82C560.496 123.98 560.129 124.967 559.582 125.78C559.036 126.593 558.316 127.22 557.422 127.66C556.542 128.1 555.482 128.32 554.242 128.32ZM567.434 128.24C566.341 128.24 565.387 128.013 564.574 127.56C563.761 127.093 563.127 126.44 562.674 125.6C562.221 124.76 561.994 123.773 561.994 122.64C561.994 121.507 562.221 120.527 562.674 119.7C563.127 118.86 563.761 118.207 564.574 117.74C565.387 117.273 566.341 117.04 567.434 117.04C568.527 117.04 569.481 117.273 570.294 117.74C571.107 118.207 571.741 118.86 572.194 119.7C572.647 120.527 572.874 121.507 572.874 122.64C572.874 123.773 572.647 124.76 572.194 125.6C571.741 126.44 571.107 127.093 570.294 127.56C569.481 128.013 568.527 128.24 567.434 128.24ZM567.434 125.94C568.181 125.94 568.761 125.653 569.174 125.08C569.587 124.493 569.794 123.68 569.794 122.64C569.794 121.6 569.587 120.793 569.174 120.22C568.761 119.633 568.181 119.34 567.434 119.34C566.687 119.34 566.107 119.633 565.694 120.22C565.281 120.793 565.074 121.6 565.074 122.64C565.074 123.68 565.281 124.493 565.694 125.08C566.107 125.653 566.687 125.94 567.434 125.94ZM574.742 128V117.28H577.442L577.562 120.42L577.182 120.32C577.289 119.52 577.502 118.88 577.822 118.4C578.155 117.92 578.569 117.573 579.062 117.36C579.555 117.147 580.095 117.04 580.682 117.04C581.455 117.04 582.109 117.207 582.642 117.54C583.189 117.873 583.602 118.347 583.882 118.96C584.175 119.56 584.322 120.273 584.322 121.1V128H581.322V122.1C581.322 121.527 581.275 121.04 581.182 120.64C581.089 120.24 580.922 119.94 580.682 119.74C580.442 119.527 580.109 119.42 579.682 119.42C579.055 119.42 578.575 119.653 578.242 120.12C577.909 120.573 577.742 121.233 577.742 122.1V128H574.742ZM590.705 128C589.599 128 588.785 127.747 588.265 127.24C587.745 126.72 587.485 125.9 587.485 124.78V114.76H590.485V124.42C590.485 124.94 590.592 125.293 590.805 125.48C591.032 125.667 591.365 125.76 591.805 125.76H593.305V128H590.705ZM585.765 119.52V117.28H593.305V119.52H585.765ZM598.195 128.24C597.089 128.24 596.182 127.987 595.475 127.48C594.782 126.96 594.435 126.24 594.435 125.32C594.435 124.373 594.729 123.647 595.315 123.14C595.915 122.62 596.795 122.24 597.955 122L601.415 121.32C601.415 120.627 601.255 120.107 600.935 119.76C600.629 119.4 600.182 119.22 599.595 119.22C599.022 119.22 598.575 119.353 598.255 119.62C597.935 119.873 597.729 120.253 597.635 120.76L594.615 120.62C594.815 119.447 595.342 118.56 596.195 117.96C597.062 117.347 598.195 117.04 599.595 117.04C601.195 117.04 602.395 117.42 603.195 118.18C604.009 118.94 604.415 120.053 604.415 121.52V125.18C604.415 125.487 604.462 125.693 604.555 125.8C604.662 125.893 604.815 125.94 605.015 125.94H605.315V128C605.222 128.027 605.069 128.053 604.855 128.08C604.655 128.107 604.455 128.12 604.255 128.12C603.829 128.12 603.429 128.047 603.055 127.9C602.695 127.753 602.402 127.507 602.175 127.16C601.949 126.8 601.835 126.293 601.835 125.64L602.095 125.84C601.962 126.32 601.722 126.74 601.375 127.1C601.042 127.46 600.602 127.74 600.055 127.94C599.522 128.14 598.902 128.24 598.195 128.24ZM598.915 126.18C599.409 126.18 599.842 126.087 600.215 125.9C600.589 125.7 600.882 125.413 601.095 125.04C601.309 124.667 601.415 124.227 601.415 123.72V123.2L598.975 123.72C598.495 123.813 598.129 123.973 597.875 124.2C597.635 124.413 597.515 124.693 597.515 125.04C597.515 125.4 597.635 125.68 597.875 125.88C598.115 126.08 598.462 126.18 598.915 126.18ZM611.555 128.24C610.462 128.24 609.508 128.013 608.695 127.56C607.882 127.093 607.248 126.44 606.795 125.6C606.342 124.76 606.115 123.773 606.115 122.64C606.115 121.507 606.342 120.527 606.795 119.7C607.248 118.86 607.882 118.207 608.695 117.74C609.508 117.273 610.462 117.04 611.555 117.04C612.502 117.04 613.348 117.207 614.095 117.54C614.855 117.873 615.468 118.353 615.935 118.98C616.402 119.607 616.688 120.36 616.795 121.24L613.695 121.38C613.602 120.713 613.362 120.213 612.975 119.88C612.602 119.533 612.128 119.36 611.555 119.36C610.808 119.36 610.228 119.647 609.815 120.22C609.402 120.793 609.195 121.6 609.195 122.64C609.195 123.68 609.402 124.493 609.815 125.08C610.228 125.653 610.808 125.94 611.555 125.94C612.128 125.94 612.608 125.767 612.995 125.42C613.382 125.06 613.615 124.52 613.695 123.8L616.795 123.92C616.702 124.8 616.422 125.567 615.955 126.22C615.502 126.86 614.895 127.36 614.135 127.72C613.388 128.067 612.528 128.24 611.555 128.24ZM622.561 128C621.454 128 620.641 127.747 620.121 127.24C619.601 126.72 619.341 125.9 619.341 124.78V114.76H622.341V124.42C622.341 124.94 622.447 125.293 622.661 125.48C622.887 125.667 623.221 125.76 623.661 125.76H625.161V128H622.561ZM617.621 119.52V117.28H625.161V119.52H617.621ZM478.561 170L486.753 147.28H492.513L500.705 170H495.649L493.985 165.168H485.249L483.585 170H478.561ZM486.625 161.168H492.641L489.633 152.4L486.625 161.168ZM511.344 170.512C509.382 170.512 507.696 170.181 506.288 169.52C504.88 168.859 503.782 167.931 502.992 166.736C502.203 165.541 501.755 164.133 501.648 162.512L506.544 162.288C506.672 163.184 506.928 163.952 507.312 164.592C507.718 165.211 508.251 165.68 508.912 166C509.595 166.32 510.427 166.48 511.408 166.48C512.219 166.48 512.902 166.384 513.456 166.192C514.032 166 514.47 165.712 514.768 165.328C515.067 164.923 515.216 164.432 515.216 163.856C515.216 163.323 515.088 162.864 514.832 162.48C514.576 162.075 514.086 161.712 513.36 161.392C512.635 161.051 511.568 160.72 510.16 160.4C508.219 159.952 506.651 159.451 505.456 158.896C504.283 158.341 503.43 157.648 502.896 156.816C502.363 155.963 502.096 154.896 502.096 153.616C502.096 152.251 502.427 151.056 503.088 150.032C503.771 149.008 504.752 148.208 506.032 147.632C507.312 147.056 508.838 146.768 510.608 146.768C512.486 146.768 514.075 147.099 515.376 147.76C516.678 148.421 517.691 149.328 518.416 150.48C519.163 151.632 519.611 152.955 519.76 154.448L514.896 154.704C514.832 153.915 514.619 153.232 514.256 152.656C513.894 152.059 513.403 151.6 512.784 151.28C512.166 150.96 511.419 150.8 510.544 150.8C509.435 150.8 508.56 151.045 507.92 151.536C507.302 152.027 506.992 152.667 506.992 153.456C506.992 154.011 507.131 154.48 507.408 154.864C507.707 155.227 508.187 155.547 508.848 155.824C509.531 156.101 510.491 156.368 511.728 156.624C513.84 157.051 515.504 157.595 516.72 158.256C517.958 158.896 518.832 159.664 519.344 160.56C519.856 161.456 520.112 162.48 520.112 163.632C520.112 165.04 519.75 166.267 519.024 167.312C518.32 168.336 517.307 169.125 515.984 169.68C514.683 170.235 513.136 170.512 511.344 170.512ZM531.415 170V147.28H547.223V151.376H536.279V156.592H546.839V160.624H536.279V165.904H547.479V170H531.415ZM551.065 170V152.848H555.385L555.577 157.872L554.969 157.712C555.14 156.432 555.481 155.408 555.993 154.64C556.526 153.872 557.188 153.317 557.977 152.976C558.766 152.635 559.63 152.464 560.569 152.464C561.806 152.464 562.852 152.731 563.705 153.264C564.58 153.797 565.241 154.555 565.689 155.536C566.158 156.496 566.393 157.637 566.393 158.96V170H561.593V160.56C561.593 159.643 561.518 158.864 561.369 158.224C561.22 157.584 560.953 157.104 560.569 156.784C560.185 156.443 559.652 156.272 558.969 156.272C557.966 156.272 557.198 156.645 556.665 157.392C556.132 158.117 555.865 159.173 555.865 160.56V170H551.065ZM576.607 170C574.836 170 573.535 169.595 572.703 168.784C571.871 167.952 571.455 166.64 571.455 164.848V148.816H576.255V164.272C576.255 165.104 576.425 165.669 576.767 165.968C577.129 166.267 577.663 166.416 578.367 166.416H580.767V170H576.607ZM568.703 156.432V152.848H580.767V156.432H568.703ZM591.027 170.384C589.278 170.384 587.752 170.021 586.451 169.296C585.171 168.549 584.168 167.504 583.443 166.16C582.739 164.816 582.387 163.237 582.387 161.424C582.387 159.611 582.739 158.043 583.443 156.72C584.168 155.376 585.171 154.331 586.451 153.584C587.731 152.837 589.246 152.464 590.995 152.464C592.702 152.464 594.184 152.837 595.443 153.584C596.702 154.331 597.672 155.397 598.355 156.784C599.059 158.171 599.411 159.824 599.411 161.744V162.704H587.347C587.411 164.069 587.774 165.083 588.435 165.744C589.118 166.405 590.014 166.736 591.123 166.736C591.934 166.736 592.606 166.565 593.139 166.224C593.694 165.883 594.088 165.36 594.323 164.656L599.155 164.944C598.707 166.651 597.758 167.984 596.307 168.944C594.856 169.904 593.096 170.384 591.027 170.384ZM587.347 159.76H594.483C594.419 158.501 594.067 157.563 593.427 156.944C592.808 156.325 591.998 156.016 590.995 156.016C589.992 156.016 589.16 156.347 588.499 157.008C587.859 157.648 587.475 158.565 587.347 159.76ZM602.378 170V152.848H606.922L607.082 157.84L606.73 157.744C607.007 156.016 607.498 154.768 608.202 154C608.906 153.232 609.876 152.848 611.114 152.848H612.682V156.816H611.114C610.218 156.816 609.482 156.933 608.906 157.168C608.33 157.403 607.892 157.776 607.594 158.288C607.316 158.8 607.178 159.493 607.178 160.368V170H602.378ZM615.065 174.8V152.848H619.673L619.769 156.464L619.385 156.304C619.812 155.067 620.505 154.117 621.465 153.456C622.425 152.795 623.545 152.464 624.825 152.464C626.425 152.464 627.758 152.859 628.825 153.648C629.892 154.437 630.692 155.515 631.225 156.88C631.78 158.224 632.057 159.739 632.057 161.424C632.057 163.088 631.78 164.603 631.225 165.968C630.692 167.333 629.881 168.411 628.793 169.2C627.726 169.989 626.393 170.384 624.793 170.384C623.961 170.384 623.182 170.235 622.457 169.936C621.732 169.616 621.102 169.179 620.569 168.624C620.057 168.069 619.684 167.408 619.449 166.64L619.865 166.384V174.8H615.065ZM623.481 166.704C624.612 166.704 625.497 166.235 626.137 165.296C626.798 164.357 627.129 163.067 627.129 161.424C627.129 159.781 626.798 158.491 626.137 157.552C625.497 156.613 624.612 156.144 623.481 156.144C622.734 156.144 622.084 156.347 621.529 156.752C620.996 157.136 620.58 157.723 620.281 158.512C620.004 159.301 619.865 160.272 619.865 161.424C619.865 162.576 620.004 163.547 620.281 164.336C620.58 165.125 620.996 165.723 621.529 166.128C622.084 166.512 622.734 166.704 623.481 166.704ZM635.034 170V152.848H639.578L639.738 157.84L639.386 157.744C639.663 156.016 640.154 154.768 640.858 154C641.562 153.232 642.533 152.848 643.77 152.848H645.338V156.816H643.77C642.874 156.816 642.138 156.933 641.562 157.168C640.986 157.403 640.549 157.776 640.25 158.288C639.973 158.8 639.834 159.493 639.834 160.368V170H635.034ZM647.846 170V152.848H652.646V170H647.846ZM647.75 150.736V146.896H652.71V150.736H647.75ZM663.862 170.384C662.091 170.384 660.609 170.139 659.414 169.648C658.219 169.136 657.302 168.453 656.662 167.6C656.043 166.725 655.691 165.723 655.606 164.592L660.47 164.432C660.619 165.243 660.961 165.872 661.494 166.32C662.027 166.768 662.817 166.992 663.862 166.992C664.715 166.992 665.377 166.853 665.846 166.576C666.337 166.299 666.582 165.872 666.582 165.296C666.582 164.933 666.497 164.635 666.326 164.4C666.155 164.144 665.814 163.931 665.302 163.76C664.811 163.568 664.075 163.397 663.094 163.248C661.281 162.928 659.862 162.555 658.838 162.128C657.814 161.701 657.089 161.147 656.662 160.464C656.235 159.781 656.022 158.949 656.022 157.968C656.022 156.325 656.651 155.003 657.91 154C659.19 152.976 661.099 152.464 663.638 152.464C665.259 152.464 666.614 152.72 667.702 153.232C668.811 153.744 669.665 154.448 670.262 155.344C670.881 156.219 671.265 157.221 671.414 158.352L666.582 158.544C666.518 157.989 666.347 157.52 666.07 157.136C665.814 156.731 665.483 156.421 665.078 156.208C664.673 155.973 664.182 155.856 663.606 155.856C662.753 155.856 662.091 156.037 661.622 156.4C661.174 156.741 660.95 157.2 660.95 157.776C660.95 158.203 661.046 158.555 661.238 158.832C661.451 159.088 661.793 159.301 662.262 159.472C662.731 159.643 663.361 159.781 664.15 159.888C665.985 160.144 667.435 160.507 668.502 160.976C669.59 161.424 670.369 161.989 670.838 162.672C671.307 163.355 671.542 164.197 671.542 165.2C671.542 166.309 671.222 167.248 670.582 168.016C669.942 168.784 669.046 169.371 667.894 169.776C666.763 170.181 665.419 170.384 663.862 170.384ZM682.215 170.384C680.465 170.384 678.94 170.021 677.639 169.296C676.359 168.549 675.356 167.504 674.631 166.16C673.927 164.816 673.575 163.237 673.575 161.424C673.575 159.611 673.927 158.043 674.631 156.72C675.356 155.376 676.359 154.331 677.639 153.584C678.919 152.837 680.433 152.464 682.183 152.464C683.889 152.464 685.372 152.837 686.631 153.584C687.889 154.331 688.86 155.397 689.543 156.784C690.247 158.171 690.599 159.824 690.599 161.744V162.704H678.535C678.599 164.069 678.961 165.083 679.623 165.744C680.305 166.405 681.201 166.736 682.311 166.736C683.121 166.736 683.793 166.565 684.327 166.224C684.881 165.883 685.276 165.36 685.511 164.656L690.343 164.944C689.895 166.651 688.945 167.984 687.495 168.944C686.044 169.904 684.284 170.384 682.215 170.384ZM678.535 159.76H685.671C685.607 158.501 685.255 157.563 684.615 156.944C683.996 156.325 683.185 156.016 682.183 156.016C681.18 156.016 680.348 156.347 679.687 157.008C679.047 157.648 678.663 158.565 678.535 159.76ZM478.809 217.576C476.553 217.576 474.609 217.048 472.977 215.992C471.345 214.912 470.085 213.376 469.197 211.384C468.333 209.392 467.901 207.016 467.901 204.256C467.901 201.496 468.345 199.12 469.233 197.128C470.121 195.112 471.369 193.564 472.977 192.484C474.609 191.404 476.553 190.864 478.809 190.864C481.041 190.864 482.961 191.404 484.569 192.484C486.201 193.564 487.461 195.112 488.349 197.128C489.237 199.12 489.681 201.496 489.681 204.256C489.681 206.992 489.237 209.356 488.349 211.348C487.485 213.34 486.237 214.876 484.605 215.956C482.973 217.036 481.041 217.576 478.809 217.576ZM478.809 212.968C480.489 212.968 481.773 212.236 482.661 210.772C483.573 209.308 484.029 207.136 484.029 204.256C484.029 202.312 483.825 200.692 483.417 199.396C483.033 198.1 482.445 197.128 481.653 196.48C480.885 195.808 479.937 195.472 478.809 195.472C477.657 195.472 476.685 195.808 475.893 196.48C475.125 197.128 474.537 198.1 474.129 199.396C473.745 200.692 473.553 202.312 473.553 204.256C473.553 207.136 473.997 209.308 474.885 210.772C475.797 212.236 477.105 212.968 478.809 212.968ZM498.293 217V200.188H492.749V196.192H494.945C496.001 196.192 496.853 196.048 497.501 195.76C498.173 195.448 498.653 194.956 498.941 194.284C499.253 193.588 499.409 192.64 499.409 191.44H503.765V217H498.293ZM518.857 217.576C516.505 217.576 514.597 217.036 513.133 215.956C511.669 214.852 510.625 213.28 510.001 211.24L515.257 210.916C515.521 211.612 515.953 212.152 516.553 212.536C517.153 212.896 517.921 213.076 518.857 213.076C520.657 213.076 521.977 212.416 522.817 211.096C523.681 209.776 524.113 207.58 524.113 204.508L524.833 204.832C524.185 206.104 523.297 207.064 522.169 207.712C521.065 208.36 519.697 208.684 518.065 208.684C516.385 208.684 514.909 208.336 513.637 207.64C512.365 206.92 511.369 205.912 510.649 204.616C509.929 203.32 509.569 201.82 509.569 200.116C509.569 198.22 509.965 196.588 510.757 195.22C511.549 193.828 512.665 192.76 514.105 192.016C515.545 191.248 517.225 190.864 519.145 190.864C521.473 190.864 523.393 191.356 524.905 192.34C526.441 193.3 527.581 194.704 528.325 196.552C529.093 198.4 529.477 200.656 529.477 203.32C529.477 205.552 529.261 207.556 528.829 209.332C528.397 211.084 527.749 212.572 526.885 213.796C526.045 215.02 524.953 215.956 523.609 216.604C522.289 217.252 520.705 217.576 518.857 217.576ZM519.253 204.76C520.165 204.76 520.945 204.568 521.593 204.184C522.265 203.8 522.781 203.26 523.141 202.564C523.501 201.868 523.681 201.028 523.681 200.044C523.681 199.084 523.501 198.244 523.141 197.524C522.805 196.78 522.313 196.216 521.665 195.832C521.017 195.424 520.237 195.22 519.325 195.22C518.461 195.22 517.705 195.424 517.057 195.832C516.409 196.216 515.905 196.768 515.545 197.488C515.209 198.208 515.041 199.048 515.041 200.008C515.041 200.992 515.221 201.832 515.581 202.528C515.941 203.224 516.433 203.776 517.057 204.184C517.681 204.568 518.413 204.76 519.253 204.76ZM543.446 217.576C541.262 217.576 539.426 217.108 537.938 216.172C536.474 215.236 535.37 213.892 534.626 212.14C533.882 210.364 533.51 208.228 533.51 205.732C533.51 203.596 533.726 201.628 534.158 199.828C534.59 198.004 535.238 196.432 536.102 195.112C536.99 193.768 538.118 192.724 539.486 191.98C540.854 191.236 542.462 190.864 544.31 190.864C546.806 190.864 548.774 191.464 550.214 192.664C551.678 193.864 552.65 195.496 553.13 197.56L548.054 197.92C547.766 197.128 547.346 196.504 546.794 196.048C546.242 195.592 545.414 195.364 544.31 195.364C542.63 195.364 541.31 196.096 540.35 197.56C539.39 199.024 538.85 201.28 538.73 204.328L537.974 204.184C538.238 203.488 538.658 202.84 539.234 202.24C539.81 201.64 540.542 201.16 541.43 200.8C542.342 200.416 543.398 200.224 544.598 200.224C546.326 200.224 547.838 200.572 549.134 201.268C550.454 201.964 551.462 202.936 552.158 204.184C552.878 205.432 553.238 206.896 553.238 208.576C553.238 210.496 552.83 212.128 552.014 213.472C551.198 214.792 550.058 215.812 548.594 216.532C547.13 217.228 545.414 217.576 543.446 217.576ZM543.41 213.22C544.73 213.22 545.786 212.812 546.578 211.996C547.394 211.156 547.802 210.04 547.802 208.648C547.802 207.736 547.622 206.944 547.262 206.272C546.926 205.6 546.434 205.072 545.786 204.688C545.162 204.304 544.43 204.112 543.59 204.112C542.702 204.112 541.91 204.304 541.214 204.688C540.518 205.072 539.978 205.6 539.594 206.272C539.21 206.944 539.018 207.736 539.018 208.648C539.018 209.536 539.198 210.328 539.558 211.024C539.918 211.72 540.422 212.26 541.07 212.644C541.742 213.028 542.522 213.22 543.41 213.22ZM567.319 217.576C565.135 217.576 563.239 217.3 561.631 216.748C560.023 216.172 558.775 215.32 557.887 214.192C557.023 213.064 556.591 211.684 556.591 210.052C556.591 208.132 557.191 206.56 558.391 205.336C559.591 204.088 561.187 203.296 563.179 202.96L563.251 203.68C561.595 203.368 560.275 202.708 559.291 201.7C558.307 200.692 557.815 199.42 557.815 197.884C557.815 196.492 558.187 195.268 558.931 194.212C559.675 193.156 560.743 192.34 562.135 191.764C563.551 191.164 565.279 190.864 567.319 190.864C569.335 190.864 571.051 191.164 572.467 191.764C573.883 192.34 574.951 193.156 575.671 194.212C576.415 195.268 576.787 196.492 576.787 197.884C576.787 199.42 576.295 200.692 575.311 201.7C574.351 202.684 573.031 203.344 571.351 203.68L571.423 202.96C573.439 203.32 575.047 204.112 576.247 205.336C577.447 206.56 578.047 208.132 578.047 210.052C578.047 211.684 577.603 213.064 576.715 214.192C575.851 215.32 574.615 216.172 573.007 216.748C571.399 217.3 569.503 217.576 567.319 217.576ZM567.319 212.968C568.855 212.968 570.079 212.644 570.991 211.996C571.927 211.324 572.395 210.4 572.395 209.224C572.395 208.048 571.951 207.112 571.063 206.416C570.199 205.696 568.951 205.336 567.319 205.336C565.687 205.336 564.427 205.696 563.539 206.416C562.651 207.112 562.207 208.048 562.207 209.224C562.207 210.4 562.675 211.324 563.611 211.996C564.547 212.644 565.783 212.968 567.319 212.968ZM567.319 201.484C568.543 201.484 569.491 201.244 570.163 200.764C570.859 200.26 571.207 199.492 571.207 198.46C571.207 197.548 570.871 196.816 570.199 196.264C569.551 195.712 568.591 195.436 567.319 195.436C566.047 195.436 565.075 195.712 564.403 196.264C563.731 196.816 563.395 197.548 563.395 198.46C563.395 199.492 563.743 200.26 564.439 200.764C565.135 201.244 566.095 201.484 567.319 201.484ZM590.646 217.576C588.294 217.576 586.386 217.036 584.922 215.956C583.458 214.852 582.414 213.28 581.79 211.24L587.046 210.916C587.31 211.612 587.742 212.152 588.342 212.536C588.942 212.896 589.71 213.076 590.646 213.076C592.446 213.076 593.766 212.416 594.606 211.096C595.47 209.776 595.902 207.58 595.902 204.508L596.622 204.832C595.974 206.104 595.086 207.064 593.958 207.712C592.854 208.36 591.486 208.684 589.854 208.684C588.174 208.684 586.698 208.336 585.426 207.64C584.154 206.92 583.158 205.912 582.438 204.616C581.718 203.32 581.358 201.82 581.358 200.116C581.358 198.22 581.754 196.588 582.546 195.22C583.338 193.828 584.454 192.76 585.894 192.016C587.334 191.248 589.014 190.864 590.934 190.864C593.262 190.864 595.182 191.356 596.694 192.34C598.23 193.3 599.37 194.704 600.114 196.552C600.882 198.4 601.266 200.656 601.266 203.32C601.266 205.552 601.05 207.556 600.618 209.332C600.186 211.084 599.538 212.572 598.674 213.796C597.834 215.02 596.742 215.956 595.398 216.604C594.078 217.252 592.494 217.576 590.646 217.576ZM591.042 204.76C591.954 204.76 592.734 204.568 593.382 204.184C594.054 203.8 594.57 203.26 594.93 202.564C595.29 201.868 595.47 201.028 595.47 200.044C595.47 199.084 595.29 198.244 594.93 197.524C594.594 196.78 594.102 196.216 593.454 195.832C592.806 195.424 592.026 195.22 591.114 195.22C590.25 195.22 589.494 195.424 588.846 195.832C588.198 196.216 587.694 196.768 587.334 197.488C586.998 198.208 586.83 199.048 586.83 200.008C586.83 200.992 587.01 201.832 587.37 202.528C587.73 203.224 588.222 203.776 588.846 204.184C589.47 204.568 590.202 204.76 591.042 204.76ZM607.746 217C607.746 214.36 608.082 211.804 608.754 209.332C609.426 206.86 610.374 204.508 611.598 202.276C612.822 200.044 614.25 197.968 615.882 196.048H602.562V191.44H621.426V195.724C619.65 197.74 618.15 199.816 616.926 201.952C615.726 204.064 614.814 206.344 614.19 208.792C613.59 211.24 613.29 213.976 613.29 217H607.746ZM633.024 217.576C630.84 217.576 629.004 217.108 627.516 216.172C626.052 215.236 624.948 213.892 624.204 212.14C623.46 210.364 623.088 208.228 623.088 205.732C623.088 203.596 623.304 201.628 623.736 199.828C624.168 198.004 624.816 196.432 625.68 195.112C626.568 193.768 627.696 192.724 629.064 191.98C630.432 191.236 632.04 190.864 633.888 190.864C636.384 190.864 638.352 191.464 639.792 192.664C641.256 193.864 642.228 195.496 642.708 197.56L637.632 197.92C637.344 197.128 636.924 196.504 636.372 196.048C635.82 195.592 634.992 195.364 633.888 195.364C632.208 195.364 630.888 196.096 629.928 197.56C628.968 199.024 628.428 201.28 628.308 204.328L627.552 204.184C627.816 203.488 628.236 202.84 628.812 202.24C629.388 201.64 630.12 201.16 631.008 200.8C631.92 200.416 632.976 200.224 634.176 200.224C635.904 200.224 637.416 200.572 638.712 201.268C640.032 201.964 641.04 202.936 641.736 204.184C642.456 205.432 642.816 206.896 642.816 208.576C642.816 210.496 642.408 212.128 641.592 213.472C640.776 214.792 639.636 215.812 638.172 216.532C636.708 217.228 634.992 217.576 633.024 217.576ZM632.988 213.22C634.308 213.22 635.364 212.812 636.156 211.996C636.972 211.156 637.38 210.04 637.38 208.648C637.38 207.736 637.2 206.944 636.84 206.272C636.504 205.6 636.012 205.072 635.364 204.688C634.74 204.304 634.008 204.112 633.168 204.112C632.28 204.112 631.488 204.304 630.792 204.688C630.096 205.072 629.556 205.6 629.172 206.272C628.788 206.944 628.596 207.736 628.596 208.648C628.596 209.536 628.776 210.328 629.136 211.024C629.496 211.72 630 212.26 630.648 212.644C631.32 213.028 632.1 213.22 632.988 213.22ZM650.777 217C650.777 214.36 651.113 211.804 651.785 209.332C652.457 206.86 653.405 204.508 654.629 202.276C655.853 200.044 657.281 197.968 658.913 196.048H645.593V191.44H664.457V195.724C662.681 197.74 661.181 199.816 659.957 201.952C658.757 204.064 657.845 206.344 657.221 208.792C656.621 211.24 656.321 213.976 656.321 217H650.777ZM666.543 217C666.543 214.816 666.831 212.92 667.407 211.312C668.007 209.704 668.967 208.264 670.287 206.992C671.631 205.72 673.407 204.508 675.615 203.356C676.791 202.756 677.715 202.228 678.387 201.772C679.083 201.292 679.575 200.812 679.863 200.332C680.151 199.852 680.295 199.288 680.295 198.64C680.295 198.016 680.151 197.476 679.863 197.02C679.599 196.54 679.203 196.168 678.675 195.904C678.147 195.616 677.487 195.472 676.695 195.472C675.399 195.472 674.367 195.856 673.599 196.624C672.855 197.368 672.387 198.46 672.195 199.9L666.579 199.576C666.819 196.864 667.803 194.74 669.531 193.204C671.283 191.644 673.647 190.864 676.623 190.864C678.591 190.864 680.259 191.188 681.627 191.836C683.019 192.484 684.075 193.384 684.795 194.536C685.539 195.688 685.911 197.032 685.911 198.568C685.911 199.912 685.683 201.04 685.227 201.952C684.795 202.864 684.087 203.704 683.103 204.472C682.119 205.24 680.823 206.056 679.215 206.92C677.151 208.024 675.627 209.044 674.643 209.98C673.659 210.892 673.131 211.696 673.059 212.392H685.911V217H666.543ZM700.738 217V212.14H688.03V207.784L699.694 191.44H706.21V207.532H709.198V212.14H706.21V217H700.738ZM693.826 207.532H700.738V198.172L693.826 207.532Z" fill="white"/>
</g>
<defs>
<linearGradient id="paint0_linear_53_34" x1="558.428" y1="95.5334" x2="608.249" y2="58.9883" gradientUnits="userSpaceOnUse">
<stop stop-color="white" stop-opacity="0.1"/>
<stop offset="1" stop-color="#496BFF" stop-opacity="0.5"/>
</linearGradient>
<linearGradient id="paint1_linear_53_34" x1="611.201" y1="95.4978" x2="560.381" y2="91.2321" gradientUnits="userSpaceOnUse">
<stop stop-color="white" stop-opacity="0.1"/>
<stop offset="1" stop-color="#496BFF" stop-opacity="0.5"/>
</linearGradient>
<linearGradient id="paint2_linear_53_34" x1="612.228" y1="35.9326" x2="555.778" y2="85.7745" gradientUnits="userSpaceOnUse">
<stop stop-color="white" stop-opacity="0.1"/>
<stop offset="1" stop-color="#496BFF" stop-opacity="0.5"/>
</linearGradient>
<clipPath id="clip0_53_34">
<rect width="826" height="276" rx="26" fill="white"/>
</clipPath>
</defs>
</svg>
